<svg width="183" height="31" viewBox="0 0 183 31" xmlns="http://www.w3.org/2000/svg">
    <g fill="none" fill-rule="evenodd">
        <path d="M0 0h183v30H0z"/>
        <text font-family="Lato-Bold, Lato" font-size="14" font-weight="bold" fill="#BA00BA" transform="translate(1)">
                        <tspan x="136.417" y="14">Cooled</tspan>
                        <tspan x="136" y="29">quickly</tspan>
                    </text>
        <path fill="#797979" fill-rule="nonzero" d="m115.163 10.25 12 5.75-12 5.75v-5H67.83v5l-12-5.75 12-5.75v5h47.333z"/>
        <path d="M78.5 7a9 9 0 1 1 0 18 9 9 0 0 1 0-18z" fill="#FFF" fill-rule="nonzero"/>
        <path d="M78.5 9a7 7 0 1 0 0 14 7 7 0 0 0 0-14z" fill="#BA00BA" fill-rule="nonzero"/>
        <text font-family="Lato-Bold, Lato" font-size="14" font-weight="bold" fill="#BA00BA" transform="translate(1)">
                        <tspan x="0" y="14">Cooled</tspan>
                        <tspan x="2.177" y="29">slowly</tspan>
                    </text>
    </g>
</svg>
