<svg width="261" height="33" viewBox="0 0 261 33" xmlns="http://www.w3.org/2000/svg">
  <g fill="none" fill-rule="evenodd">
    <g>
      <text font-family="Lato-Bold, Lato" font-size="14" font-weight="bold" fill="#C20000" transform="translate(29)">
        <tspan x="147" y="14">Iron-poor</tspan>
        <tspan x="150.315" y="29">minerals</tspan>
      </text>
      <path fill="#797979" fill-rule="nonzero"
        d="m154.167 10.25 12 5.75-12 5.75-.001-5h-47.333v5l-12-5.75 12-5.75v5h47.333z" />
      <path d="M142.5 7a9 9 0 1 1 0 18 9 9 0 0 1 0-18z" fill="#FFF" fill-rule="nonzero" />
      <path d="M142.5 9a7 7 0 1 0 0 14 7 7 0 0 0 0-14z" fill="#C20000" fill-rule="nonzero" />
      <text font-family="Lato-Bold, Lato" font-size="14" font-weight="bold" fill="#C20000" transform="translate(29)">
        <tspan x="0" y="14">Iron-rich</tspan>
        <tspan x=".613" y="29">minerals</tspan>
      </text>
    </g>
  </g>
</svg>
