<?xml version="1.0" encoding="UTF-8"?>
<svg width="261" height="33" viewBox="0 0 261 33" xmlns="http://www.w3.org/2000/svg">
  <g id="Page-1" stroke="none" stroke-width="1" fill="none" fill-rule="evenodd">
    <g id="TecRocks---Rock-Type-Tab" transform="translate(-1099.000000, -3979.000000)">
      <g id="Iron-rich" transform="translate(1065.000000, 3236.000000)">
        <g id="Tabs" transform="translate(0.000000, 25.000000)">
          <g id="Rock-Type-Tab-Contents" transform="translate(5.000000, 49.000000)">
            <g id="Magma" transform="translate(10.000000, 468.000000)">
              <g id="Details" transform="translate(0.000000, 87.500000)">
                <g id="Iron-rich-Magma-Diagram" transform="translate(19.000000, 113.500000)">
                  <g id="Silica-Iron" transform="translate(29.000000, 0.000000)">
                    <text id="Iron-poor-minerals" font-family="Lato-Bold, Lato" font-size="14" font-weight="bold"
                      line-spacing="15" fill="#C20000">
                      <tspan x="147" y="14">Iron-poor</tspan>
                      <tspan x="150.3145" y="29">minerals</tspan>
                    </text>
                    <polygon id="Slider-Arrow" fill="#797979" fill-rule="nonzero"
                      points="125.166667 10.25 137.166667 16 125.166667 21.75 125.166 16.75 77.833 16.75 77.8333333 21.75 65.8333333 16 77.8333333 10.25 77.833 15.25 125.166 15.25">
                    </polygon>
                    <path
                      d="M89.5,7 C94.4705627,7 98.5,11.0294373 98.5,16 C98.5,20.9705627 94.4705627,25 89.5,25 C84.5294373,25 80.5,20.9705627 80.5,16 C80.5,11.0294373 84.5294373,7 89.5,7 Z"
                      id="Marker-outer" fill="#FFFFFF" fill-rule="nonzero"></path>
                    <path
                      d="M89.5,9 C85.6340068,9 82.5,12.1340068 82.5,16 C82.5,19.8659932 85.6340068,23 89.5,23 C93.3659932,23 96.5,19.8659932 96.5,16 C96.5,12.1340068 93.3659932,9 89.5,9 Z"
                      id="Marker-inner" fill="#C20000" fill-rule="nonzero"></path>
                    <text id="Iron-rich-minerals" font-family="Lato-Bold, Lato" font-size="14" font-weight="bold"
                      line-spacing="15" fill="#C20000">
                      <tspan x="0" y="14">Iron-rich</tspan>
                      <tspan x="0.6125" y="29">minerals</tspan>
                    </text>
                  </g>
                </g>
              </g>
            </g>
          </g>
        </g>
      </g>
    </g>
  </g>
</svg>
