<svg width="257" height="31" viewBox="0 0 257 31" xmlns="http://www.w3.org/2000/svg">
    <g fill="none" fill-rule="evenodd">
        <path d="M0 0h257v30H0z"/>
        <text font-family="Lato-Bold, Lato" font-size="14" font-weight="bold" fill="#C20000">
                        <tspan x="193.922" y="14">Higher</tspan>
                        <tspan x="174" y="29">Temperature</tspan>
                    </text>
        <path fill="#797979" fill-rule="nonzero" d="m152.167 10.25 12 5.75-12 5.75-.001-5h-47.333v5l-12-5.75 12-5.75v5h47.333z"/>
        <path d="M115.5 7a9 9 0 1 1 0 18 9 9 0 0 1 0-18z" fill="#FFF" fill-rule="nonzero"/>
        <path d="M115.5 9a7 7 0 1 0 0 14 7 7 0 0 0 0-14z" fill="#C20000" fill-rule="nonzero"/>
        <text font-family="Lato-Bold, Lato" font-size="14" font-weight="bold" fill="#C20000">
                        <tspan x="21.578" y="14">Lower</tspan>
                        <tspan x="0" y="29">Temperature</tspan>
                    </text>
    </g>
</svg>
