<svg width="197" height="51" viewBox="0 0 197 51" xmlns="http://www.w3.org/2000/svg" xmlns:xlink="http://www.w3.org/1999/xlink">
    <defs>
        <rect id="cczwrhm66a" x="0" y="0" width="75" height="25" rx="5"/>
    </defs>
    <g fill="none" fill-rule="evenodd">
        <path d="M0 0h197v51H0z"/>
        <g transform="translate(61 26)">
            <mask id="a6lhw3s13b" fill="#fff">
                <use xlink:href="#cczwrhm66a"/>
            </mask>
            <g mask="url(#a6lhw3s13b)" fill="#000">
                <path d="M50.111 2.653a.809.809 0 0 1-.495-.193.773.773 0 0 1-.209-.518c0-.19.075-.38.209-.516a.733.733 0 0 1 1.01 0 .74.74 0 0 1 .211.516.692.692 0 0 1-.211.498.737.737 0 0 1-.515.213M45.496 3.981a.754.754 0 0 1-.46-.179.692.692 0 0 1 0-.963c.25-.25.692-.25.94 0a.693.693 0 0 1 .195.481.646.646 0 0 1-.195.463.687.687 0 0 1-.48.198M47.88 5.285a.905.905 0 0 1-.558-.217.872.872 0 0 1-.234-.582c0-.215.084-.43.234-.581a.825.825 0 0 1 1.137 0c.15.15.236.366.236.58 0 .217-.086.41-.236.56a.825.825 0 0 1-.58.24M47.965 1.348a.92.92 0 0 1-.564-.219.885.885 0 0 1-.237-.59c0-.217.085-.435.237-.588a.834.834 0 0 1 1.151 0 .845.845 0 0 1 .24.588.787.787 0 0 1-.24.566.836.836 0 0 1-.587.243M44.787 1.627a.943.943 0 0 1-.58-.226.904.904 0 0 1-.244-.606c0-.224.087-.448.244-.605a.858.858 0 0 1 1.184 0 .865.865 0 0 1 .246.605.807.807 0 0 1-.246.582.86.86 0 0 1-.604.25M49.988 22.604a.56.56 0 0 1-.346-.135.518.518 0 0 1 0-.724.514.514 0 0 1 .707 0 .524.524 0 0 1 .147.362.487.487 0 0 1-.147.348.517.517 0 0 1-.36.149M48.348 11.21a.56.56 0 0 1-.346-.134.518.518 0 0 1 0-.724.514.514 0 0 1 .707 0 .524.524 0 0 1 .147.362.487.487 0 0 1-.147.348.517.517 0 0 1-.36.149M50.86 9.848a.56.56 0 0 1-.347-.135.518.518 0 0 1 0-.724.514.514 0 0 1 .707 0 .524.524 0 0 1 .147.362.487.487 0 0 1-.147.348.517.517 0 0 1-.36.15M45.105 11.381a.847.847 0 0 1-.52-.202.815.815 0 0 1-.218-.544c0-.2.078-.4.218-.542a.77.77 0 0 1 1.061 0 .776.776 0 0 1 .221.542c0 .202-.08.383-.22.522a.77.77 0 0 1-.541.224M51.365 7.349a.789.789 0 0 1-.485-.19.759.759 0 0 1-.204-.506c0-.187.073-.374.204-.506a.718.718 0 0 1 .99 0 .727.727 0 0 1 .206.506.677.677 0 0 1-.206.487.72.72 0 0 1-.505.209M48.51 8.23a.62.62 0 0 1-.382-.147.571.571 0 0 1 0-.797.565.565 0 0 1 .778 0 .572.572 0 0 1 .162.398.532.532 0 0 1-.162.383.564.564 0 0 1-.397.164M45.018 7.788c-.214 0-.452-.098-.62-.241a.967.967 0 0 1-.26-.648.92.92 0 0 1 .26-.645.917.917 0 0 1 1.265 0 .924.924 0 0 1 .262.645.864.864 0 0 1-.262.622.919.919 0 0 1-.645.267M50.447 20.146a.88.88 0 0 1-.542-.211.849.849 0 0 1-.23-.568c0-.21.083-.418.23-.565a.803.803 0 0 1 1.107 0c.146.147.23.356.23.565 0 .21-.084.4-.23.545a.805.805 0 0 1-.565.234M46.41 18.412a.93.93 0 0 1-.566-.22.89.89 0 0 1-.24-.594c0-.218.087-.437.24-.591a.84.84 0 0 1 1.157 0 .846.846 0 0 1 .24.591.788.788 0 0 1-.24.57.842.842 0 0 1-.59.244M46.462 14.013a.789.789 0 0 1-.485-.189.759.759 0 0 1-.204-.507c0-.187.073-.374.204-.506a.718.718 0 0 1 .99 0 .727.727 0 0 1 .206.506.677.677 0 0 1-.206.487.72.72 0 0 1-.505.209M49.093 15.123a.927.927 0 0 1-.568-.221.89.89 0 0 1-.24-.594c0-.22.087-.438.24-.592a.84.84 0 0 1 1.159 0 .846.846 0 0 1 .24.592.792.792 0 0 1-.24.57.845.845 0 0 1-.591.245M44.112 15.483a.857.857 0 0 1-.526-.204.824.824 0 0 1-.221-.55c0-.204.079-.406.221-.549a.778.778 0 0 1 1.073 0 .782.782 0 0 1 .224.548.732.732 0 0 1-.224.53.778.778 0 0 1-.547.225M45.085 25.694a1.02 1.02 0 0 1-.627-.244.981.981 0 0 1-.263-.655c0-.242.094-.484.263-.654.34-.34.942-.34 1.279 0 .17.17.266.412.266.654a.872.872 0 0 1-.266.63.926.926 0 0 1-.652.27M43.021 22.976a.56.56 0 0 1-.346-.135.518.518 0 0 1 0-.724.514.514 0 0 1 .707 0 .524.524 0 0 1 .147.362.487.487 0 0 1-.147.348.517.517 0 0 1-.36.15M48.57 24.998a.71.71 0 0 1-.433-.169.678.678 0 0 1-.182-.453c0-.168.065-.335.182-.453a.642.642 0 0 1 .885 0 .646.646 0 0 1 .184.453.6.6 0 0 1-.184.435.642.642 0 0 1-.451.187M46.733 23.009a.839.839 0 0 1-.516-.201.806.806 0 0 1-.218-.54c0-.2.078-.398.218-.54a.764.764 0 0 1 1.054 0c.139.142.219.34.219.54s-.08.38-.22.519a.77.77 0 0 1-.537.222M44.244 21.007a.974.974 0 0 1-.597-.232.936.936 0 0 1-.252-.626c0-.23.09-.46.252-.623a.884.884 0 0 1 1.22 0 .894.894 0 0 1 .253.623c0 .233-.092.44-.254.601a.89.89 0 0 1-.622.257M41.948 4.407a.834.834 0 0 1-.512-.199.8.8 0 0 1-.216-.536.76.76 0 0 1 .216-.534.757.757 0 0 1 1.045 0 .763.763 0 0 1 .218.534.711.711 0 0 1-.218.514.757.757 0 0 1-.533.221M39.347 4.295a.843.843 0 0 1-.515-.2.808.808 0 0 1-.218-.54c0-.2.078-.398.218-.538a.764.764 0 0 1 1.052 0c.139.14.219.339.219.538 0 .2-.08.38-.22.518a.768.768 0 0 1-.536.222M35.886 1.343a.96.96 0 0 1-.585-.227.916.916 0 0 1-.246-.612c0-.226.088-.451.246-.61a.866.866 0 0 1 1.194 0 .874.874 0 0 1 .248.61c0 .227-.09.43-.248.587a.872.872 0 0 1-.609.252M39.138 17.552a.681.681 0 0 1-.417-.162.655.655 0 0 1-.176-.437c0-.161.063-.322.176-.435a.616.616 0 0 1 .852 0 .626.626 0 0 1 .177.435.585.585 0 0 1-.177.419.619.619 0 0 1-.435.18M41.843 1.25a.99.99 0 0 1-.605-.235.951.951 0 0 1-.255-.633c0-.234.092-.467.255-.631a.896.896 0 0 1 1.235 0 .906.906 0 0 1 .257.63.849.849 0 0 1-.257.609.902.902 0 0 1-.63.26M42.248 10.565a.764.764 0 0 1-.464-.18.728.728 0 0 1-.195-.486c0-.178.07-.357.195-.483a.686.686 0 0 1 .947 0 .695.695 0 0 1 .197.483.647.647 0 0 1-.197.466.69.69 0 0 1-.483.2M38.765 9.106a.81.81 0 0 1-.495-.193.775.775 0 0 1-.21-.52c0-.191.074-.382.21-.517a.735.735 0 0 1 1.012 0c.135.135.21.326.21.517a.693.693 0 0 1-.21.499.74.74 0 0 1-.517.214M41.2 7.048a.967.967 0 0 1-.592-.23.927.927 0 0 1-.249-.62c0-.228.09-.456.25-.617a.876.876 0 0 1 1.207 0c.16.161.251.39.251.617a.825.825 0 0 1-.25.595.879.879 0 0 1-.617.255M36.665 6.843a.74.74 0 0 1-.452-.176.707.707 0 0 1-.19-.472c0-.174.068-.348.19-.471a.668.668 0 0 1 .922 0 .677.677 0 0 1 .192.47c0 .176-.07.333-.192.455a.673.673 0 0 1-.47.194M42.487 18.326a.924.924 0 0 1-.565-.22.885.885 0 0 1-.237-.59c0-.218.085-.436.237-.59a.837.837 0 0 1 1.153 0 .841.841 0 0 1 .239.59.787.787 0 0 1-.239.567.841.841 0 0 1-.588.243M37.69 19.83a.744.744 0 0 1-.456-.176.714.714 0 0 1-.191-.477.68.68 0 0 1 .19-.475.674.674 0 0 1 .93 0 .678.678 0 0 1 .195.475c0 .177-.07.336-.194.458a.676.676 0 0 1-.474.196M41.422 13.676a.8.8 0 0 1-.493-.192.769.769 0 0 1-.208-.516c0-.19.074-.38.208-.514a.728.728 0 0 1 1.006 0c.134.134.21.324.21.514a.688.688 0 0 1-.21.496.73.73 0 0 1-.513.212M36.395 16.09a.71.71 0 0 1-.433-.168.649.649 0 0 1 0-.906.642.642 0 0 1 .884 0 .65.65 0 0 1 .184.452.603.603 0 0 1-.184.435.642.642 0 0 1-.451.187M38.88 23.717a.79.79 0 0 1-.485-.188.759.759 0 0 1-.204-.507c0-.187.073-.374.204-.506a.717.717 0 0 1 .988 0 .727.727 0 0 1 .206.506.674.674 0 0 1-.206.486.717.717 0 0 1-.504.21M40.545 21.06a.71.71 0 0 1-.433-.169.649.649 0 0 1 0-.906.64.64 0 0 1 .884 0 .65.65 0 0 1 .184.452.603.603 0 0 1-.184.435.642.642 0 0 1-.45.187M35.933 23.111a.754.754 0 0 1-.464-.18.695.695 0 0 1 0-.97.688.688 0 0 1 .947 0 .696.696 0 0 1 .197.484c0 .18-.07.342-.197.466a.688.688 0 0 1-.483.2M35.267 4.375a.903.903 0 0 1-.552-.215.862.862 0 0 1-.232-.577c0-.213.083-.425.232-.576.299-.3.83-.3 1.126 0 .15.151.235.363.235.576a.766.766 0 0 1-.235.554.818.818 0 0 1-.574.238M32.507 3.132a.842.842 0 0 1-.52-.202.81.81 0 0 1-.218-.543c0-.2.078-.4.219-.542a.769.769 0 0 1 1.059 0 .778.778 0 0 1 .22.542.72.72 0 0 1-.22.521.766.766 0 0 1-.54.224M38.11 12.488a1.07 1.07 0 0 1-.654-.254 1.027 1.027 0 0 1-.275-.684.98.98 0 0 1 .275-.682c.354-.355.983-.355 1.334 0 .177.178.278.43.278.682a.913.913 0 0 1-.278.657.971.971 0 0 1-.68.281M33.644 13.62c-.24 0-.505-.11-.693-.269a1.088 1.088 0 0 1-.292-.726c0-.267.105-.534.292-.722.375-.377 1.042-.377 1.414 0 .188.188.294.455.294.722 0 .27-.106.511-.294.697a1.03 1.03 0 0 1-.72.298M35.277 10.771a.825.825 0 0 1-.503-.195.787.787 0 0 1-.211-.526c0-.194.075-.388.21-.525a.745.745 0 0 1 1.027 0 .754.754 0 0 1 .214.525c0 .195-.078.37-.214.505a.748.748 0 0 1-.523.216M30.577 11.446a1.02 1.02 0 0 1-.625-.243.98.98 0 0 1-.264-.655c0-.24.095-.482.264-.652.338-.34.94-.34 1.276 0 .17.17.265.411.265.652a.873.873 0 0 1-.265.63.929.929 0 0 1-.65.268M32.964 6.637a.823.823 0 0 1-.506-.197.792.792 0 0 1-.213-.529c0-.195.076-.39.213-.528a.75.75 0 0 1 1.033 0 .758.758 0 0 1 .215.528.706.706 0 0 1-.215.508.75.75 0 0 1-.527.218M29.528 7.913a.729.729 0 0 1-.449-.175.7.7 0 0 1-.19-.47.67.67 0 0 1 .19-.47.666.666 0 0 1 .917 0 .676.676 0 0 1 .191.47c0 .175-.07.33-.19.45a.666.666 0 0 1-.469.195M35.087 18.94a.8.8 0 0 1-.49-.19.768.768 0 0 1-.205-.511.73.73 0 0 1 .206-.51.724.724 0 0 1 .998 0 .732.732 0 0 1 .208.51c0 .19-.076.36-.208.49a.727.727 0 0 1-.51.212M31.517 18.848a.792.792 0 0 1-.488-.19.764.764 0 0 1-.206-.512c0-.188.074-.377.206-.509a.721.721 0 0 1 .996 0 .725.725 0 0 1 .208.51c0 .19-.075.36-.208.49a.723.723 0 0 1-.508.21M32.674 15.79a.75.75 0 0 1-.46-.179.688.688 0 0 1 0-.961.682.682 0 0 1 .94 0 .689.689 0 0 1 .194.48.642.642 0 0 1-.194.462.685.685 0 0 1-.48.198M29.53 14.675a.976.976 0 0 1-.602-.234.94.94 0 0 1-.254-.629c0-.233.091-.464.254-.628a.89.89 0 0 1 1.227 0 .9.9 0 0 1 .256.628.839.839 0 0 1-.256.604.89.89 0 0 1-.626.26M32.913 22.335a1.07 1.07 0 0 1-.654-.254 1.026 1.026 0 0 1-.276-.685c0-.252.099-.504.276-.682.354-.356.983-.356 1.335 0 .177.178.278.43.278.682a.912.912 0 0 1-.278.657.972.972 0 0 1-.681.282M29.364 20.408a.825.825 0 0 1-.503-.195.787.787 0 0 1-.21-.527c0-.194.074-.387.21-.524a.743.743 0 0 1 1.026 0c.136.137.214.33.214.524a.7.7 0 0 1-.214.505.745.745 0 0 1-.523.217M27.95 2.595a.859.859 0 0 1-.526-.205.82.82 0 0 1-.222-.55c0-.204.08-.407.222-.55a.78.78 0 0 1 1.074 0 .788.788 0 0 1 .223.55.735.735 0 0 1-.223.528.782.782 0 0 1-.548.227M21.945 6.599a.914.914 0 0 1-.56-.218.876.876 0 0 1-.235-.585c0-.216.084-.432.235-.584a.83.83 0 0 1 1.143 0 .838.838 0 0 1 .237.584.782.782 0 0 1-.237.562.833.833 0 0 1-.583.24M29.894 5.21c-.24 0-.505-.11-.693-.268a1.088 1.088 0 0 1-.292-.726c0-.267.105-.534.292-.722.375-.377 1.042-.377 1.414 0 .188.188.294.455.294.722 0 .27-.106.51-.294.697a1.03 1.03 0 0 1-.72.298M32.45 9.336a.789.789 0 0 1-.484-.189.759.759 0 0 1-.204-.507c0-.187.073-.374.204-.506a.718.718 0 0 1 .99 0 .727.727 0 0 1 .206.506.677.677 0 0 1-.206.487.72.72 0 0 1-.505.21M27.236 10.362a.783.783 0 0 1-.478-.186.748.748 0 0 1-.2-.5c0-.184.071-.368.2-.498a.707.707 0 0 1 .975 0c.13.13.203.314.203.498a.663.663 0 0 1-.203.48.708.708 0 0 1-.497.206M23.065 11.207a.833.833 0 0 1-.51-.198.801.801 0 0 1-.215-.534c0-.197.077-.394.215-.533a.756.756 0 0 1 1.041 0 .766.766 0 0 1 .217.533.712.712 0 0 1-.217.512.756.756 0 0 1-.531.22M26.905 6.472a.777.777 0 0 1-.476-.185.747.747 0 0 1-.2-.5c0-.183.071-.366.2-.496a.705.705 0 0 1 .972 0c.13.13.202.313.202.497a.665.665 0 0 1-.202.479.711.711 0 0 1-.496.205M29.068 23.178a.82.82 0 0 1-.503-.196.784.784 0 0 1-.212-.526c0-.195.075-.389.212-.526a.744.744 0 0 1 1.027 0 .754.754 0 0 1 .214.526.703.703 0 0 1-.214.506.747.747 0 0 1-.524.216M25.261 19.148a.678.678 0 0 1-.416-.162.621.621 0 0 1 0-.868.614.614 0 0 1 .85 0 .622.622 0 0 1 .175.433.582.582 0 0 1-.176.418.62.62 0 0 1-.433.179M21.83 19.684c-.225 0-.474-.103-.65-.253a1.019 1.019 0 0 1-.274-.681.97.97 0 0 1 .274-.678c.352-.354.977-.354 1.327 0a.971.971 0 0 1 .276.678c0 .253-.1.479-.276.654a.965.965 0 0 1-.677.28M27.553 17.488c-.24 0-.505-.11-.693-.27a1.088 1.088 0 0 1-.292-.725c0-.267.105-.534.292-.722.375-.377 1.042-.377 1.414 0 .188.188.294.455.294.722 0 .27-.106.51-.294.697a1.03 1.03 0 0 1-.72.298M24.823 24.45a.725.725 0 0 1-.441-.17.692.692 0 0 1-.185-.462c0-.17.066-.34.185-.46a.652.652 0 0 1 .9 0c.119.12.187.29.187.46a.614.614 0 0 1-.187.443.654.654 0 0 1-.46.19M26.124 22.308a.996.996 0 0 1-.611-.238.956.956 0 0 1-.257-.639c0-.236.092-.47.257-.638.33-.332.919-.332 1.247 0 .166.167.26.402.26.638 0 .237-.094.45-.26.614a.907.907 0 0 1-.636.263M25.613 13.51c-.24 0-.505-.11-.693-.268a1.088 1.088 0 0 1-.292-.726c0-.267.105-.534.292-.722.375-.377 1.042-.377 1.414 0 .188.188.294.455.294.722 0 .27-.106.51-.294.697a1.03 1.03 0 0 1-.721.298M39.364 15.346a.729.729 0 0 1-.45-.175.7.7 0 0 1-.19-.47.67.67 0 0 1 .19-.47.666.666 0 0 1 .918 0 .676.676 0 0 1 .19.47c0 .175-.07.33-.19.45a.666.666 0 0 1-.468.195M24.373 8.89c-.294 0-.62-.136-.85-.332-.23-.263-.358-.559-.358-.89 0-.328.128-.655.358-.887.46-.462 1.278-.462 1.735 0 .23.232.36.56.36.887 0 .331-.13.627-.36.855-.23.231-.556.366-.885.366M19.279 9.839a1.36 1.36 0 0 1-.833-.324c-.225-.258-.35-.547-.35-.871 0-.321.125-.642.35-.87.45-.452 1.252-.452 1.7 0 .225.228.353.549.353.87 0 .324-.128.613-.353.836a1.235 1.235 0 0 1-.867.359M25.357 3.994c-.24 0-.505-.11-.693-.269A1.088 1.088 0 0 1 24.372 3c0-.267.105-.534.292-.722.375-.377 1.042-.377 1.414 0 .188.188.294.455.294.722 0 .27-.106.511-.294.697a1.03 1.03 0 0 1-.72.298M17.602 6.264c-.328 0-.69-.15-.947-.368-.256-.294-.398-.623-.398-.991 0-.365.142-.73.398-.988.513-.515 1.424-.515 1.933 0 .256.258.402.623.402.988 0 .368-.146.697-.402.95a1.404 1.404 0 0 1-.986.409M16.855 2.294a1.47 1.47 0 0 1-.904-.352c-.244-.28-.38-.594-.38-.946 0-.348.136-.697.38-.943.49-.49 1.36-.49 1.845 0 .245.246.384.595.384.943 0 .352-.139.666-.384.91a1.34 1.34 0 0 1-.94.388M21.598 3.717c-.298 0-.628-.137-.86-.335-.234-.267-.363-.566-.363-.901 0-.332.13-.664.362-.898.466-.468 1.294-.468 1.757 0 .233.234.366.566.366.898a1.2 1.2 0 0 1-.366.865 1.28 1.28 0 0 1-.896.37M23.449 16.725c-.24 0-.505-.11-.693-.27a1.088 1.088 0 0 1-.292-.725c0-.267.105-.534.292-.722.375-.377 1.042-.377 1.414 0 .188.188.294.455.294.722 0 .27-.106.51-.294.697a1.03 1.03 0 0 1-.721.298M19.119 17.999c-.336 0-.707-.154-.97-.377-.262-.301-.408-.638-.408-1.015 0-.374.146-.748.408-1.012.525-.527 1.458-.527 1.98 0 .262.264.41.638.41 1.012 0 .377-.148.714-.41.974a1.443 1.443 0 0 1-1.01.418M20.746 13.613c-.31 0-.651-.142-.892-.347-.242-.277-.376-.587-.376-.934 0-.344.134-.688.376-.931.483-.485 1.34-.485 1.82 0 .243.243.38.587.38.93 0 .348-.137.658-.38.898a1.326 1.326 0 0 1-.928.384M16.16 13.495c-.302 0-.635-.138-.87-.338-.235-.269-.366-.57-.366-.909 0-.335.131-.67.366-.907.47-.472 1.306-.472 1.774 0 .235.237.368.572.368.907 0 .338-.133.64-.368.873a1.293 1.293 0 0 1-.905.374M19.068 22.423c-.271 0-.572-.124-.784-.305-.212-.243-.33-.516-.33-.82 0-.303.118-.605.33-.818.424-.427 1.179-.427 1.6 0 .212.213.333.515.333.818 0 .304-.121.577-.333.787a1.16 1.16 0 0 1-.816.338M22.627 22.996c-.24 0-.505-.11-.693-.27a1.088 1.088 0 0 1-.292-.725c0-.267.105-.534.292-.722.375-.377 1.042-.377 1.414 0 .188.188.294.455.294.722 0 .27-.106.51-.294.697a1.03 1.03 0 0 1-.721.298M15.65 20.238c-.317 0-.67-.146-.918-.357-.25-.285-.387-.605-.387-.962 0-.355.137-.71.386-.96.497-.5 1.383-.5 1.877 0 .248.25.39.605.39.96 0 .357-.142.677-.39.923-.25.25-.601.396-.958.396M14.779 8.903c-.27 0-.567-.123-.777-.302-.21-.241-.327-.511-.327-.813 0-.3.117-.6.327-.811.42-.423 1.168-.423 1.586 0 .21.21.33.51.33.81 0 .303-.12.573-.33.78-.21.213-.508.336-.81.336M10.82 7.672c-.347 0-.731-.16-1.002-.39-.272-.31-.422-.66-.422-1.05 0-.386.15-.772.422-1.045.542-.545 1.507-.545 2.046 0a1.5 1.5 0 0 1 .425 1.046c0 .39-.154.739-.425 1.007a1.49 1.49 0 0 1-1.044.432M12.805 4.507c-.335 0-.706-.154-.968-.376-.262-.3-.407-.637-.407-1.013 0-.374.145-.747.407-1.01.524-.527 1.455-.527 1.976 0 .262.263.411.636.411 1.01 0 .376-.149.713-.41.972a1.44 1.44 0 0 1-1.009.417M8.105 3.348c-.268 0-.564-.123-.774-.301-.209-.24-.326-.51-.326-.81 0-.298.117-.597.326-.807.42-.421 1.164-.421 1.58 0 .21.21.328.509.328.807 0 .3-.119.57-.328.778-.21.21-.506.333-.806.333M12.98 16.714a1.39 1.39 0 0 1-.853-.331c-.23-.264-.36-.56-.36-.893 0-.329.13-.657.36-.889.462-.464 1.282-.464 1.74 0 .23.232.363.56.363.89 0 .331-.132.628-.362.857a1.267 1.267 0 0 1-.888.366M8.68 16.676c-.344 0-.725-.157-.992-.386-.27-.307-.419-.653-.419-1.038 0-.383.15-.766.418-1.036.537-.539 1.492-.539 2.026 0 .269.27.42.653.42 1.036 0 .385-.151.731-.42.997-.268.27-.65.427-1.034.427M11.343 11.793a1.2 1.2 0 0 1-.735-.286 1.152 1.152 0 0 1-.31-.77c0-.284.11-.567.31-.767.398-.4 1.105-.4 1.5 0 .2.2.313.483.313.767 0 .286-.113.542-.312.739-.2.2-.481.317-.766.317M6.85 12.08c-.32 0-.674-.146-.925-.36-.25-.285-.39-.607-.39-.966 0-.357.14-.713.39-.965.5-.503 1.39-.503 1.888 0 .25.252.392.608.392.965 0 .359-.142.68-.392.929a1.378 1.378 0 0 1-.963.398M14.382 25.294c-.36 0-.758-.165-1.039-.404-.28-.322-.438-.684-.438-1.088 0-.401.157-.801.438-1.084.562-.565 1.562-.565 2.121 0 .281.283.441.683.441 1.084 0 .404-.16.766-.44 1.044-.282.283-.68.448-1.083.448M11.678 21.08c-.275 0-.58-.125-.796-.308-.215-.247-.335-.524-.335-.834 0-.306.12-.613.335-.83.431-.433 1.197-.433 1.625 0 .215.216.337.523.337.83 0 .31-.122.587-.337.8a1.183 1.183 0 0 1-.829.343M7.457 22.695c-.272 0-.574-.125-.787-.306-.213-.244-.33-.517-.33-.823 0-.304.117-.607.33-.821.426-.428 1.183-.428 1.606 0 .213.214.334.517.334.82 0 .307-.12.58-.334.79a1.168 1.168 0 0 1-.819.34M5.9 7.474c-.33 0-.694-.152-.952-.37-.257-.295-.4-.627-.4-.997 0-.367.143-.734.4-.992.515-.519 1.43-.519 1.943 0 .257.258.404.625.404.992 0 .37-.147.702-.404.957-.258.258-.622.41-.991.41M1.754 9.495c-.332 0-.7-.152-.96-.374-.26-.297-.405-.63-.405-1.005 0-.37.144-.74.404-1.002.52-.523 1.445-.523 1.961 0 .26.261.408.631.408 1.002 0 .374-.148.708-.408.965-.26.262-.628.414-1 .414M2.807 4.585c-.36 0-.758-.165-1.039-.404-.28-.322-.438-.684-.438-1.088 0-.401.157-.801.438-1.084.562-.565 1.562-.565 2.121 0 .281.283.441.683.441 1.084 0 .404-.16.766-.44 1.044-.282.283-.68.448-1.083.448M4.811 18.918c-.348 0-.734-.16-1.006-.391-.273-.312-.424-.662-.424-1.054a1.5 1.5 0 0 1 .424-1.05c.544-.547 1.513-.547 2.054 0 .272.274.427.662.427 1.05 0 .392-.155.742-.427 1.012a1.499 1.499 0 0 1-1.048.433M.258 18.107c-.274 0-.578-.125-.792-.308-.215-.245-.334-.52-.334-.829 0-.305.119-.61.334-.826.429-.431 1.191-.431 1.617 0 .214.216.336.52.336.826 0 .308-.122.584-.336.797a1.178 1.178 0 0 1-.825.34M2.836 14.528c-.396 0-.834-.18-1.143-.445-.309-.354-.48-.752-.48-1.196 0-.44.171-.882.48-1.193.62-.62 1.72-.62 2.333 0 .31.311.486.752.486 1.193 0 .444-.176.842-.486 1.15a1.696 1.696 0 0 1-1.19.491M4.509 26.38c-.396 0-.834-.181-1.143-.445-.31-.354-.481-.752-.481-1.196 0-.441.172-.882.48-1.193.62-.621 1.72-.621 2.334 0 .31.31.486.752.486 1.193 0 .444-.176.842-.486 1.149a1.696 1.696 0 0 1-1.19.492M2.009 22.381c-.31 0-.651-.142-.892-.347-.242-.277-.376-.587-.376-.934 0-.344.134-.688.376-.93.483-.486 1.34-.486 1.82 0 .242.242.38.586.38.93 0 .347-.138.657-.38.897a1.328 1.328 0 0 1-.928.384M72.773 3.54a.391.391 0 0 1-.242-.095.36.36 0 0 1 0-.507.358.358 0 0 1 .494 0 .36.36 0 0 1 .103.253.338.338 0 0 1-.103.245.357.357 0 0 1-.252.104M66.413 17.324a.404.404 0 0 1-.249-.097.388.388 0 0 1-.104-.26.37.37 0 0 1 .104-.259.37.37 0 0 1 .508 0 .37.37 0 0 1 .105.26.348.348 0 0 1-.105.25.368.368 0 0 1-.259.106M73.529 6.944a.402.402 0 0 1-.243-.094.38.38 0 0 1-.102-.255c0-.093.036-.187.102-.253a.36.36 0 0 1 .496 0c.065.066.103.16.103.253a.34.34 0 0 1-.103.244.362.362 0 0 1-.253.105M66.156 12.792a.419.419 0 0 1-.257-.1.383.383 0 0 1 0-.538.38.38 0 0 1 .525 0c.07.07.11.169.11.269s-.04.189-.11.258a.383.383 0 0 1-.268.111M70.502 21.626a.4.4 0 0 1-.246-.096.366.366 0 0 1 0-.514.364.364 0 0 1 .502 0 .367.367 0 0 1 .105.257.343.343 0 0 1-.105.247.364.364 0 0 1-.256.106M64.851 3.045a.413.413 0 0 1-.25-.097.377.377 0 0 1 0-.524.37.37 0 0 1 .511 0 .373.373 0 0 1 .106.26.348.348 0 0 1-.106.253.374.374 0 0 1-.26.108M67.731 9.15a.467.467 0 0 1-.286-.112.429.429 0 0 1 0-.598.425.425 0 0 1 .584 0 .43.43 0 0 1 .121.3.4.4 0 0 1-.12.286.425.425 0 0 1-.299.123M55.616 18.011a.553.553 0 0 1-.34-.132.53.53 0 0 1-.142-.355c0-.13.05-.262.143-.354a.5.5 0 0 1 .692 0 .506.506 0 0 1 .144.354c0 .132-.052.25-.144.341a.504.504 0 0 1-.353.146M72.322 8.416a.508.508 0 0 1-.31-.12.467.467 0 0 1 0-.648.46.46 0 0 1 .632 0 .465.465 0 0 1 .132.323.432.432 0 0 1-.132.312.458.458 0 0 1-.322.133M71.421 5.465a.338.338 0 0 1-.208-.081.325.325 0 0 1-.087-.217c0-.081.031-.161.087-.217a.308.308 0 0 1 .424 0 .306.306 0 0 1 .09.217c0 .08-.033.153-.09.208a.307.307 0 0 1-.216.09M69.501 12.774a.409.409 0 0 1-.25-.098.393.393 0 0 1-.107-.263c0-.097.038-.194.106-.262a.372.372 0 0 1 .513 0 .374.374 0 0 1 .106.262.351.351 0 0 1-.106.253.376.376 0 0 1-.262.108M73.042 14.272a.435.435 0 0 1-.267-.104.416.416 0 0 1-.112-.28c0-.102.04-.204.112-.277a.396.396 0 0 1 .545 0 .4.4 0 0 1 .113.278.371.371 0 0 1-.113.268.397.397 0 0 1-.278.115M73.266 11.659c-.1 0-.21-.046-.29-.112a.453.453 0 0 1-.12-.302c0-.112.043-.223.12-.301a.427.427 0 0 1 .59 0 .426.426 0 0 1 .123.3.4.4 0 0 1-.123.29.429.429 0 0 1-.3.125M71.478 11.49a.44.44 0 0 1-.272-.106.424.424 0 0 1-.115-.285c0-.105.041-.21.115-.284a.402.402 0 0 1 .556 0 .41.41 0 0 1 .115.284.383.383 0 0 1-.115.274.407.407 0 0 1-.284.117M72.671 20.399a.338.338 0 0 1-.208-.081.325.325 0 0 1-.087-.217c0-.081.031-.161.087-.217a.308.308 0 0 1 .424 0 .306.306 0 0 1 .09.217c0 .08-.033.153-.09.208a.307.307 0 0 1-.216.09M73.3 17.282a.432.432 0 0 1-.262-.102.414.414 0 0 1-.111-.276c0-.101.04-.203.11-.274a.39.39 0 0 1 .538 0 .393.393 0 0 1 .112.274.369.369 0 0 1-.112.265.393.393 0 0 1-.274.113M71.515 16.223a.482.482 0 0 1-.295-.115.44.44 0 0 1 0-.617.436.436 0 0 1 .602 0c.08.08.126.194.126.308a.412.412 0 0 1-.126.297.438.438 0 0 1-.307.127M71.011 23.593a.4.4 0 0 1-.245-.095.367.367 0 0 1 0-.512.363.363 0 0 1 .5 0 .368.368 0 0 1 .104.255.344.344 0 0 1-.104.247.365.365 0 0 1-.255.105M62.272 8.676a.404.404 0 0 1-.25-.097.388.388 0 0 1-.103-.26.37.37 0 0 1 .104-.259.367.367 0 0 1 .508 0 .37.37 0 0 1 .105.26.348.348 0 0 1-.105.25.368.368 0 0 1-.26.106M56.523 19.8a.45.45 0 0 1-.276-.107.434.434 0 0 1-.117-.29.41.41 0 0 1 .117-.288.408.408 0 0 1 .564 0 .41.41 0 0 1 .117.288.384.384 0 0 1-.117.278.412.412 0 0 1-.288.119M69.372 2.787a.515.515 0 0 1-.318-.124.495.495 0 0 1-.133-.332.47.47 0 0 1 .133-.331.47.47 0 0 1 .649 0 .473.473 0 0 1 .135.33.443.443 0 0 1-.135.32.47.47 0 0 1-.331.137M67.527 2.738a.397.397 0 0 1-.243-.095.376.376 0 0 1-.102-.254.36.36 0 0 1 .102-.253.358.358 0 0 1 .496 0 .36.36 0 0 1 .103.253.336.336 0 0 1-.103.244.362.362 0 0 1-.253.105M48.686 17.438a.436.436 0 0 1-.268-.104.42.42 0 0 1-.112-.28c0-.104.04-.207.112-.28a.398.398 0 0 1 .547 0 .402.402 0 0 1 .113.28.375.375 0 0 1-.113.269.398.398 0 0 1-.28.115M70.092 8.037a.424.424 0 0 1-.258-.1.404.404 0 0 1-.11-.27c0-.1.04-.2.11-.27a.381.381 0 0 1 .527 0c.07.07.11.17.11.27a.36.36 0 0 1-.11.26.385.385 0 0 1-.27.11M67.18 7.133a.563.563 0 0 1-.344-.135.535.535 0 0 1-.144-.359c0-.133.05-.264.144-.359a.51.51 0 0 1 .702 0 .515.515 0 0 1 .146.36.48.48 0 0 1-.146.345.513.513 0 0 1-.358.147M68.984 4.35a.338.338 0 0 1-.208-.08.325.325 0 0 1-.087-.217c0-.082.03-.162.087-.218a.308.308 0 0 1 .424 0 .306.306 0 0 1 .089.218c0 .08-.032.152-.09.208a.307.307 0 0 1-.215.09M64.76 5.186a.524.524 0 0 1-.322-.125.501.501 0 0 1-.136-.337c0-.125.048-.248.136-.337a.476.476 0 0 1 .658 0 .484.484 0 0 1 .137.337c0 .125-.05.237-.137.324a.48.48 0 0 1-.336.138M69.37 14.326a.416.416 0 0 1-.255-.1.396.396 0 0 1-.108-.268c0-.1.038-.198.108-.268a.38.38 0 0 1 .523 0c.069.07.109.169.109.268 0 .1-.04.189-.11.258a.384.384 0 0 1-.266.11M66.572 14.67a.505.505 0 0 1-.31-.12.463.463 0 0 1 0-.645.457.457 0 0 1 .63 0 .46.46 0 0 1 .132.321c0 .12-.047.227-.131.31a.458.458 0 0 1-.321.133M68.352 11.063a.338.338 0 0 1-.208-.081.325.325 0 0 1-.087-.217c0-.081.03-.161.087-.217a.308.308 0 0 1 .424 0 .306.306 0 0 1 .089.217c0 .08-.032.153-.09.208a.307.307 0 0 1-.215.09M66.038 10.42a.416.416 0 0 1-.253-.098.396.396 0 0 1-.106-.264c0-.098.038-.195.106-.264a.375.375 0 0 1 .516 0 .38.38 0 0 1 .107.263.351.351 0 0 1-.107.254.373.373 0 0 1-.263.11M68.767 20.055a.404.404 0 0 1-.246-.096.388.388 0 0 1-.105-.259c0-.095.038-.19.105-.257a.364.364 0 0 1 .504 0 .367.367 0 0 1 .105.257.347.347 0 0 1-.105.25.367.367 0 0 1-.258.105M67.547 19.1a.338.338 0 0 1-.208-.082.325.325 0 0 1-.087-.216c0-.082.03-.162.087-.218a.308.308 0 0 1 .424 0 .306.306 0 0 1 .088.218.307.307 0 0 1-.305.298M68.264 16.392a.484.484 0 0 1-.296-.115.443.443 0 0 1 0-.617.438.438 0 0 1 .604 0 .44.44 0 0 1 .125.308.411.411 0 0 1-.125.297.442.442 0 0 1-.308.127M64.74 16.151a.475.475 0 0 1-.293-.114.44.44 0 0 1 0-.612.434.434 0 0 1 .597 0 .44.44 0 0 1 .125.306.41.41 0 0 1-.124.294.434.434 0 0 1-.305.126M67.95 22.318a.443.443 0 0 1-.27-.105.424.424 0 0 1-.115-.284.4.4 0 0 1 .115-.283.4.4 0 0 1 .552 0 .402.402 0 0 1 .117.283.4.4 0 0 1-.398.389M65.18 23.437a.407.407 0 0 1-.253-.099.377.377 0 0 1 0-.529.375.375 0 0 1 .517 0 .382.382 0 0 1 .107.264.355.355 0 0 1-.107.255.377.377 0 0 1-.264.11M67.415 24.363a.515.515 0 0 1-.314-.122.47.47 0 0 1 0-.655.463.463 0 0 1 .64 0 .468.468 0 0 1 .134.327.437.437 0 0 1-.134.315.465.465 0 0 1-.326.135M53.606 8.62a.412.412 0 0 1-.254-.099.397.397 0 0 1-.107-.266c0-.098.038-.196.107-.265a.377.377 0 0 1 .519 0 .382.382 0 0 1 .107.265.36.36 0 0 1-.107.256.38.38 0 0 1-.265.11M53.067 12.184a.519.519 0 0 1-.32-.125.498.498 0 0 1-.135-.335c0-.123.048-.247.135-.334a.475.475 0 0 1 .654 0 .482.482 0 0 1 .136.334.45.45 0 0 1-.136.322.478.478 0 0 1-.334.138M63.547 1.558c-.1 0-.21-.046-.288-.112a.433.433 0 0 1 0-.603.426.426 0 0 1 .589 0c.077.079.122.19.122.301a.405.405 0 0 1-.122.29.429.429 0 0 1-.3.124M60.26 1.316a.485.485 0 0 1-.298-.116.464.464 0 0 1-.126-.312c0-.115.045-.23.126-.31a.441.441 0 0 1 .608 0 .445.445 0 0 1 .127.31c0 .116-.046.22-.127.3a.442.442 0 0 1-.31.128M58.2 6.24a.47.47 0 0 1-.287-.112.448.448 0 0 1-.121-.3c0-.11.043-.222.12-.3a.425.425 0 0 1 .587 0 .429.429 0 0 1 .122.3.4.4 0 0 1-.122.288.428.428 0 0 1-.3.124M64.275 8.186a.44.44 0 0 1-.269-.105.419.419 0 0 1-.113-.281.4.4 0 0 1 .113-.281.399.399 0 0 1 .549 0 .401.401 0 0 1 .114.281.374.374 0 0 1-.114.27.4.4 0 0 1-.28.116M60.415 7.413a.563.563 0 0 1-.346-.135.538.538 0 0 1-.146-.362c0-.133.052-.267.146-.36a.512.512 0 0 1 .706 0 .517.517 0 0 1 .147.36.481.481 0 0 1-.147.348.513.513 0 0 1-.36.15M62.94 5.134a.411.411 0 0 1-.252-.098.395.395 0 0 1-.106-.264c0-.097.038-.194.106-.262a.373.373 0 0 1 .514 0 .375.375 0 0 1 .107.262.355.355 0 0 1-.107.254.374.374 0 0 1-.262.108M59.802 4.308a.563.563 0 0 1-.343-.134.517.517 0 0 1 0-.72.51.51 0 0 1 .702 0 .518.518 0 0 1 .146.36.482.482 0 0 1-.146.346.517.517 0 0 1-.359.148M63.362 14.259a.495.495 0 0 1-.302-.117.473.473 0 0 1-.127-.317.45.45 0 0 1 .127-.315.448.448 0 0 1 .617 0 .455.455 0 0 1 .128.315.424.424 0 0 1-.128.304.45.45 0 0 1-.315.13M61.404 14.236a.412.412 0 0 1-.254-.1.395.395 0 0 1-.107-.265c0-.097.038-.195.107-.264a.374.374 0 0 1 .518 0 .378.378 0 0 1 .108.264.354.354 0 0 1-.108.256.376.376 0 0 1-.264.109M61.813 10.76a.43.43 0 0 1-.267-.105.416.416 0 0 1-.113-.28c0-.103.04-.206.113-.279a.396.396 0 0 1 .545 0 .398.398 0 0 1 .114.28.394.394 0 0 1-.392.384M59.853 11.05a.433.433 0 0 1-.267-.104.416.416 0 0 1-.112-.279c0-.103.04-.206.112-.278a.396.396 0 0 1 .545 0 .398.398 0 0 1 .113.278.371.371 0 0 1-.113.268.395.395 0 0 1-.278.115M63.336 20.879a.463.463 0 0 1-.282-.11.44.44 0 0 1-.118-.294.42.42 0 0 1 .118-.294.416.416 0 0 1 .575 0c.077.076.12.185.12.294a.392.392 0 0 1-.12.283.42.42 0 0 1-.293.121M60.788 19.81a.538.538 0 0 1-.331-.13.497.497 0 0 1 0-.691.49.49 0 0 1 .675 0c.09.09.14.219.14.346a.461.461 0 0 1-.14.333.49.49 0 0 1-.344.142M62.555 16.827a.443.443 0 0 1-.272-.106.407.407 0 0 1 0-.569.402.402 0 0 1 .555 0 .408.408 0 0 1 .116.284.38.38 0 0 1-.116.274.403.403 0 0 1-.283.117M58.97 16.426a.559.559 0 0 1-.343-.133.537.537 0 0 1-.144-.359c0-.132.051-.264.144-.358a.509.509 0 0 1 .7 0 .514.514 0 0 1 .145.358.476.476 0 0 1-.145.344.507.507 0 0 1-.357.148M62.518 22.336a.474.474 0 0 1-.291-.113.437.437 0 0 1 0-.609.431.431 0 0 1 .594 0c.079.08.124.192.124.304a.407.407 0 0 1-.124.293.433.433 0 0 1-.303.125M58.487 22.49a.483.483 0 0 1-.298-.116.448.448 0 0 1 0-.624.442.442 0 0 1 .609 0c.08.082.126.197.126.312 0 .116-.046.22-.126.3a.444.444 0 0 1-.311.128M60.167 23.27a.44.44 0 0 1-.268-.104.399.399 0 0 1 0-.561.396.396 0 0 1 .548 0 .403.403 0 0 1 .114.28.376.376 0 0 1-.114.269.4.4 0 0 1-.28.116M57.19 3.138a.41.41 0 0 1-.255-.099.381.381 0 0 1 0-.532.377.377 0 0 1 .52 0 .381.381 0 0 1 .107.266.375.375 0 0 1-.373.365M57.76 1.503a.443.443 0 0 1-.273-.106.425.425 0 0 1-.116-.287c0-.105.041-.211.116-.285a.404.404 0 0 1 .558 0c.074.074.116.18.116.285a.38.38 0 0 1-.116.275.404.404 0 0 1-.285.118M53.477 2.424a.537.537 0 0 1-.327-.127.512.512 0 0 1-.137-.343.49.49 0 0 1 .137-.34.485.485 0 0 1 .667 0 .491.491 0 0 1 .14.34.456.456 0 0 1-.14.329.485.485 0 0 1-.34.14M58.307 9.045a.52.52 0 0 1-.319-.124.497.497 0 0 1-.135-.334c0-.124.048-.247.135-.334a.473.473 0 0 1 .651 0c.087.087.136.21.136.334a.472.472 0 0 1-.468.458M55.403 7.67c-.1 0-.21-.046-.288-.112a.448.448 0 0 1-.121-.301c0-.112.043-.223.12-.301a.426.426 0 0 1 .589 0 .43.43 0 0 1 .122.3.4.4 0 0 1-.122.29.429.429 0 0 1-.3.123M55.863 5.968a.568.568 0 0 1-.345-.134.517.517 0 0 1 0-.721.512.512 0 0 1 .704 0 .518.518 0 0 1 .146.36.484.484 0 0 1-.146.347.516.516 0 0 1-.359.148M54.16 4.224a.505.505 0 0 1-.308-.12.48.48 0 0 1-.13-.321c0-.12.047-.238.13-.321a.454.454 0 0 1 .628 0 .46.46 0 0 1 .13.32.432.432 0 0 1-.13.31.459.459 0 0 1-.32.132M58.576 13.721a.474.474 0 0 1-.29-.113.435.435 0 0 1 0-.605.43.43 0 0 1 .592 0 .435.435 0 0 1 .122.302.403.403 0 0 1-.122.291.432.432 0 0 1-.302.125M55.342 13.587a.556.556 0 0 1-.342-.133.533.533 0 0 1-.144-.358c0-.132.05-.264.144-.357a.506.506 0 0 1 .698 0 .51.51 0 0 1 .146.357.477.477 0 0 1-.146.344.506.506 0 0 1-.356.147M56.391 10.629a.44.44 0 0 1-.272-.106.424.424 0 0 1-.115-.285c0-.105.041-.21.115-.284a.402.402 0 0 1 .556 0 .41.41 0 0 1 .115.284.383.383 0 0 1-.115.274.407.407 0 0 1-.284.117M54.098 10.677a.515.515 0 0 1-.318-.124.497.497 0 0 1-.134-.333c0-.122.048-.245.134-.331a.47.47 0 0 1 .65 0 .474.474 0 0 1 .134.33.444.444 0 0 1-.135.32.47.47 0 0 1-.33.138M57.931 19.125A.524.524 0 0 1 57.61 19a.503.503 0 0 1-.136-.338c0-.123.048-.248.136-.335a.476.476 0 0 1 .658 0 .482.482 0 0 1 .137.335.45.45 0 0 1-.137.325.478.478 0 0 1-.336.139M53.998 20.368a.481.481 0 0 1-.293-.114.44.44 0 0 1 0-.613.434.434 0 0 1 .598 0c.08.08.125.193.125.306a.408.408 0 0 1-.125.295.436.436 0 0 1-.305.126M56.459 15.525a.496.496 0 0 1-.304-.118.477.477 0 0 1-.13-.319.45.45 0 0 1 .13-.317.45.45 0 0 1 .62 0c.083.082.13.2.13.317a.427.427 0 0 1-.13.306.45.45 0 0 1-.316.131M52.76 17.276a.547.547 0 0 1-.334-.13.521.521 0 0 1-.14-.35c0-.128.05-.256.14-.348a.493.493 0 0 1 .681 0 .496.496 0 0 1 .142.348.46.46 0 0 1-.142.335.494.494 0 0 1-.347.145M56.032 23.844a.404.404 0 0 1-.248-.096.388.388 0 0 1-.104-.26c0-.095.037-.191.104-.258a.367.367 0 0 1 .506 0 .37.37 0 0 1 .105.258.344.344 0 0 1-.105.249.366.366 0 0 1-.258.107M53.684 22.051a.411.411 0 0 1-.252-.098.392.392 0 0 1-.107-.264c0-.098.038-.195.107-.264a.374.374 0 0 1 .515 0 .38.38 0 0 1 .107.264.35.35 0 0 1-.107.253.373.373 0 0 1-.263.11M62.082 3.42a.554.554 0 0 1-.343-.134.512.512 0 0 1 0-.717.507.507 0 0 1 .7 0 .513.513 0 0 1 .146.358.505.505 0 0 1-.503.493M65.658 20.545a.509.509 0 0 1-.312-.12.467.467 0 0 1 0-.652.464.464 0 0 1 .637 0 .468.468 0 0 1 .132.325.436.436 0 0 1-.132.313.464.464 0 0 1-.325.134M47.036 20.61a.477.477 0 0 1-.292-.113.458.458 0 0 1-.123-.306c0-.113.044-.225.123-.304a.432.432 0 0 1 .596 0 .434.434 0 0 1 .124.304.405.405 0 0 1-.124.293.432.432 0 0 1-.304.126M53.474 6.438a.544.544 0 0 1-.332-.13.496.496 0 0 1 0-.694c.18-.18.5-.18.678 0a.501.501 0 0 1 .141.348.465.465 0 0 1-.14.333.495.495 0 0 1-.347.143M49.937 5.615a.407.407 0 0 1-.253-.099.392.392 0 0 1-.107-.265c0-.098.038-.195.107-.264a.375.375 0 0 1 .517 0 .38.38 0 0 1 .107.264.355.355 0 0 1-.107.255.377.377 0 0 1-.264.109M51.836 3.995a.468.468 0 0 1-.287-.112.448.448 0 0 1-.12-.3c0-.111.042-.222.12-.3a.425.425 0 0 1 .586 0 .429.429 0 0 1 .122.3.4.4 0 0 1-.122.288.428.428 0 0 1-.299.124M52.242 14.605a.527.527 0 0 1-.322-.125.505.505 0 0 1-.135-.337c0-.124.048-.248.135-.335a.477.477 0 0 1 .657 0 .479.479 0 0 1 .136.335.451.451 0 0 1-.136.324.48.48 0 0 1-.335.138M50.608 12.053a.511.511 0 0 1-.315-.123.47.47 0 0 1 0-.658.465.465 0 0 1 .643 0 .471.471 0 0 1 .134.33.44.44 0 0 1-.134.315.466.466 0 0 1-.328.136M70.322 18.543a.422.422 0 0 1-.26-.1.41.41 0 0 1-.11-.273c0-.1.04-.2.11-.272a.386.386 0 0 1 .53 0c.07.071.11.171.11.272s-.04.191-.11.261a.386.386 0 0 1-.27.112M62.836 24.471a.409.409 0 0 1-.251-.098.374.374 0 0 1 0-.524.37.37 0 0 1 .512 0 .375.375 0 0 1 .107.262.35.35 0 0 1-.107.252.374.374 0 0 1-.261.108M51.101 17.388a.56.56 0 0 1-.346-.135.538.538 0 0 1-.146-.362c0-.134.052-.267.146-.361a.51.51 0 0 1 .706 0 .515.515 0 0 1 .147.36.481.481 0 0 1-.147.349.513.513 0 0 1-.36.149M53.667 24.804a.535.535 0 0 1-.33-.128.513.513 0 0 1-.137-.344.49.49 0 0 1 .138-.343.488.488 0 0 1 .672 0 .49.49 0 0 1 .139.343c0 .128-.05.242-.14.33a.49.49 0 0 1-.342.142M63.942 11.385a.463.463 0 0 1-.283-.11.425.425 0 0 1 0-.591.418.418 0 0 1 .577 0 .422.422 0 0 1 .121.295c0 .11-.044.208-.12.284a.417.417 0 0 1-.295.122M56.008 22.05a.399.399 0 0 1-.246-.096.366.366 0 0 1 0-.514.364.364 0 0 1 .502 0 .367.367 0 0 1 .105.257.343.343 0 0 1-.105.247.364.364 0 0 1-.256.106M52.188 23.12a.421.421 0 0 1-.257-.1.403.403 0 0 1-.108-.268c0-.1.04-.198.108-.267a.38.38 0 0 1 .524 0c.07.069.11.168.11.267a.38.38 0 0 1-.376.369M64.051 18.483a.483.483 0 0 1-.298-.116.464.464 0 0 1-.126-.312c0-.115.045-.23.126-.31a.44.44 0 0 1 .61 0c.08.08.125.195.125.31 0 .116-.046.22-.126.3a.446.446 0 0 1-.31.128"/>
            </g>
            <path d="M70 0a5 5 0 0 1 5 5v15a5 5 0 0 1-5 5H5a5 5 0 0 1-5-5V5a5 5 0 0 1 5-5h65zm0 1H5a4 4 0 0 0-3.995 3.8L1 5v15a4 4 0 0 0 3.8 3.995L5 24h65a4 4 0 0 0 3.995-3.8L74 20V5a4 4 0 0 0-3.8-3.995L70 1z" fill="#797979" fill-rule="nonzero" mask="url(#a6lhw3s13b)"/>
        </g>
        <text font-family="Lato-Bold, Lato" font-size="14" font-weight="bold" fill="#434343">
                        <tspan x="161" y="14">Small</tspan>
                    </text>
        <path fill="#797979" fill-rule="nonzero" d="m139.167 4.25 12 5.75-12 5.75-.001-5H57.833v5l-12-5.75 12-5.75v5h81.333z"/>
        <path d="M122.5 1a9 9 0 1 1 0 18 9 9 0 0 1 0-18z" fill="#FFF" fill-rule="nonzero"/>
        <path d="M122.5 3a7 7 0 1 0 0 14 7 7 0 0 0 0-14z" fill="#FB0" fill-rule="nonzero"/>
        <text font-family="Lato-Bold, Lato" font-size="14" font-weight="bold" fill="#434343">
                        <tspan x=".986" y="14">Large</tspan>
                    </text>
    </g>
</svg>
