<svg width="12" height="31" xmlns="http://www.w3.org/2000/svg">
    <g fill="none" fill-rule="evenodd">
        <path d="M12 0v31H0V0z"/>
        <path d="M2.751 31v-.286l-.094-.324-.365-1.106-.37-1.085C1.061 25.669.71 23.716.751 21.377c.04-2.294.6-4.038 2.03-6.58l.21-.368.751-1.28.14-.246.24-.447c.474-.91.628-1.465.628-2.034 0-.67-.06-1.24-.228-1.97l-.079-.324-.14-.516-.174-.582-.36-1.144-.235-.786c-.502-1.732-.718-2.944-.771-4.386l-.01-.366L2.751 0H5.25l.003.326c.021 1.176.164 2.142.484 3.364l.113.418.2.688.464 1.484c.532 1.729.736 2.78.736 4.142 0 1.17-.35 2.198-1.17 3.671l-.17.3-.761 1.3c-1.326 2.292-1.864 3.73-1.899 5.729-.035 1.957.254 3.55.876 5.48l.163.49.37 1.087.372 1.126.108.367c.08.292.103.46.11.652l.001.119V31H2.751z" fill="#9B2660" fill-rule="nonzero"/>
        <path d="M9.25 0c0 1.107.122 1.9.52 3.272l.098.328.479 1.535c.662 2.162.903 3.532.903 5.287 0 1.787-.451 3.324-1.476 5.25l-.199.365-.296.521-.633 1.078-.277.486-.24.44-.205.402c-.503 1.025-.66 1.698-.675 2.528-.023 1.303.137 2.388.556 3.775l.121.387.267.788.335.966.153.46.121.392c.218.733.355 1.384.416 2.063l.024.343.01.334H6.75l-.007-.268a6.923 6.923 0 0 0-.246-1.438l-.091-.321-.113-.364-.137-.412-.325-.933-.273-.81c-.579-1.791-.84-3.233-.808-5.006.03-1.685.495-2.927 1.708-5.023l.666-1.135.278-.489c.927-1.669 1.348-2.907 1.348-4.38 0-1.538-.228-2.713-.798-4.567l-.47-1.509c-.5-1.654-.703-2.698-.729-4.032L6.75 0h2.5z" fill="#9B2660" fill-rule="nonzero"/>
    </g>
</svg>
