<svg width="30" height="30" viewBox="0 0 30 30" xmlns="http://www.w3.org/2000/svg">
    <g fill="none" fill-rule="evenodd">
        <path d="M0 0h30v30H0z"/>
        <path d="m22.425 6.865-.122-.115a2.75 2.75 0 0 0-3.767.115L15 10.4l-3.537-3.535a2.75 2.75 0 0 0-3.889 0l-.707.707-.115.122a2.75 2.75 0 0 0 .115 3.767l3.536 3.535-3.536 3.536a2.75 2.75 0 0 0 0 3.889l.707.707.122.115a2.75 2.75 0 0 0 3.767-.115l3.537-3.536 3.535 3.536a2.75 2.75 0 0 0 3.889 0l.707-.707.115-.122a2.75 2.75 0 0 0-.115-3.767l-3.534-3.537 3.534-3.534a2.75 2.75 0 0 0 0-3.89l-.707-.706z" fill="#FFF"/>
        <path d="M21.718 8.988a.75.75 0 0 1 0 1.06l-4.95 4.95 4.95 4.95a.75.75 0 0 1 0 1.06l-.708.707a.75.75 0 0 1-1.06 0L15 16.765l-4.95 4.95a.75.75 0 0 1-1.06 0l-.708-.707a.75.75 0 0 1 0-1.06l4.95-4.95-4.95-4.95a.75.75 0 0 1 0-1.06l.708-.708a.75.75 0 0 1 1.06 0L15 13.23l4.95-4.95a.75.75 0 0 1 1.06 0l.708.708z" fill="#797979" fill-rule="nonzero"/>
    </g>
</svg>
