<svg width="11" height="11" xmlns="http://www.w3.org/2000/svg">
    <g fill="none" fill-rule="evenodd">
        <path d="M0 11h11V0H0z"/>
        <g fill="#797979">
            <path d="M8.743 5.995a1.385 1.385 0 0 0-.137-.194c-.217.237-.543.541-.984.803-.237.14-.509.265-.81.362.04.092.083.174.124.235.582.847 1.106 1.486 1.485 2.553.126.357-.1.881.187.97.493.153 2.047-.737 2.321-1.387.065-.152-.359-.54-.676-.84-.35-.331-.938-1.453-1.51-2.502M6.478 6.002c.035.117.097.326.17.542a3.84 3.84 0 0 0 1.647-1.075c-.134-.126-.263-.237-.343-.316-.4-.394-.81-1.122-1.039-1.66a1.881 1.881 0 0 1-.106-.348c-.14.207-.226.454-.252.554l-.12.469-.46-.15a2.13 2.13 0 0 0-.749-.077c.113.08.223.166.324.27.49.507.804 1.374.928 1.79"/>
            <path d="m4.231 1.404.058-.034C5.89.43 7.716.222 7.983.263c.37.058.728 1.368.506 1.652a.163.163 0 0 1-.045.038c-.204.12-.803.037-1.427.406a2.146 2.146 0 0 0-.368.276c-.383.355-.532.954-.532.954s-.746-.252-1.471.024c-.475.199-.91.423-1.312.66C1.833 5.163.822 6.25.098 6.964a.058.058 0 0 1-.01.008c-.119.07.215-1.295.604-1.998.69-1.247 1.486-2.352 3.539-3.57"/>
        </g>
    </g>
</svg>
