<svg width="30" height="43" viewBox="0 0 30 43" xmlns="http://www.w3.org/2000/svg">
    <g fill="none" fill-rule="evenodd">
        <path d="M0 0h30v43H0z"/>
        <path d="M12.5 0a9.46 9.46 0 0 1 7.772 4.053l.265-.033.348-.02H25a5 5 0 0 1 3.57 8.501c.885.9 1.43 2.136 1.43 3.499a4.989 4.989 0 0 1-1.43 3.501 5 5 0 0 1-2.772 8.435l-.22.03-.115.014-.348.02h-.366c.118.58.195 1.17.23 1.77l.016.371.005.359C25 37.404 19.404 43 12.5 43S0 37.404 0 30.5c0-2.87.977-5.588 2.701-7.763l.23-.28.069-.081V9.5C3 4.434 6.965.295 11.96.015l.27-.011L12.5 0z"/>
        <g transform="translate(4 4)" fill-rule="nonzero">
            <circle fill="red" cx="8.5" cy="26.5" r="4.5"/>
            <path d="M8.5 0a5.5 5.5 0 0 1 5.496 5.279L14 5.5l.001 14.52A8.5 8.5 0 1 1 3 20.02V5.5A5.5 5.5 0 0 1 8.5 0z" fill="#797979"/>
            <path d="M8.5 2a3.5 3.5 0 0 0-3.495 3.308L5 5.5v15.444l-.705.6a6.5 6.5 0 1 0 8.614.18l-.203-.18-.705-.599V5.539l-.004-.181A3.5 3.5 0 0 0 8.5 2z" fill="#FFF"/>
            <circle fill="red" cx="8.5" cy="26.5" r="4.5"/>
            <path d="M21 18a1 1 0 0 1 .117 1.993L21 20h-4a1 1 0 0 1-.117-1.993L17 18h4zM21 11a1 1 0 0 1 .117 1.993L21 13h-4a1 1 0 0 1-.117-1.993L17 11h4zM21 4a1 1 0 0 1 .117 1.993L21 6h-4a1 1 0 0 1-.117-1.993L17 4h4z" fill="#797979"/>
        </g>
    </g>
</svg>
