<svg width="24" height="24" xmlns="http://www.w3.org/2000/svg">
    <g fill="none" fill-rule="evenodd">
        <path d="M0 0h24v24H0z"/>
        <path d="m14.275 12 3.411-3.411a1.072 1.072 0 0 0 0-1.517l-.758-.758a1.072 1.072 0 0 0-1.516 0L12 9.725 8.589 6.314a1.072 1.072 0 0 0-1.517 0l-.758.758a1.072 1.072 0 0 0 0 1.517L9.725 12l-3.411 3.411a1.072 1.072 0 0 0 0 1.517l.758.758a1.072 1.072 0 0 0 1.517 0L12 14.275l3.412 3.411a1.072 1.072 0 0 0 1.516 0l.758-.758a1.072 1.072 0 0 0 0-1.517L14.275 12z" fill="#A1A1A1"/>
    </g>
</svg>
