<svg width="237" height="69" xmlns="http://www.w3.org/2000/svg">
    <g fill="none" fill-rule="evenodd">
        <path d="M0 0h237v68H0V0z"/>
        <text font-family="Lato-Bold, Lato" font-size="14" font-weight="bold" fill="#BA00BA">
                                            <tspan x="174.417" y="52">Cooled</tspan>
                                            <tspan x="174" y="67">quickly</tspan>
                                        </text>
        <path fill="#797979" fill-rule="nonzero" d="m152.167 48.25 12 5.75-12 5.75-.001-5H84.833v5l-12-5.75 12-5.75v5h67.333z"/>
        <path d="M96.5 45a9 9 0 1 1 0 18 9 9 0 0 1 0-18z" fill="#FFF" fill-rule="nonzero"/>
        <path d="M96.5 47a7 7 0 1 0 0 14 7 7 0 0 0 0-14z" fill="#BA00BA" fill-rule="nonzero"/>
        <text font-family="Lato-Bold, Lato" font-size="14" font-weight="bold" fill="#BA00BA">
                                            <tspan x="18" y="52">Cooled</tspan>
                                            <tspan x="20.177" y="67">slowly</tspan>
                                        </text>
        <g>
            <text font-family="Lato-Bold, Lato" font-size="14" font-weight="bold" fill="#BA00BA" transform="translate(7)">
                                            <tspan x="167" y="14">Silica-rich</tspan>
                                            <tspan x="171.046" y="29">minerals</tspan>
                                        </text>
            <path fill="#797979" fill-rule="nonzero" d="m152.167 10.25 12 5.75-12 5.75-.001-5H84.833v5l-12-5.75 12-5.75v5h67.333z"/>
            <path d="M126.5 7a9 9 0 1 1 0 18 9 9 0 0 1 0-18z" fill="#FFF" fill-rule="nonzero"/>
            <path d="M126.5 9a7 7 0 1 0 0 14 7 7 0 0 0 0-14z" fill="#BA00BA" fill-rule="nonzero"/>
            <text font-family="Lato-Bold, Lato" font-size="14" font-weight="bold" fill="#BA00BA" transform="translate(7)">
                                            <tspan x="0" y="14">Iron-rich</tspan>
                                            <tspan x=".613" y="29">minerals</tspan>
                                        </text>
        </g>
    </g>
</svg>
