<svg width="235" height="143" xmlns="http://www.w3.org/2000/svg">
    <g fill="none" fill-rule="evenodd">
        <path d="M0 0h235v142H0V0z"/>
        <path fill="#FFF" d="M119.5 75h34v34h-34z"/>
        <path fill="#1B7517" opacity=".85" d="M119.5 75h34v34h-34z"/>
        <path fill="#FFF" d="M81.5 75h34v34h-34z"/>
        <path fill="#1B7517" opacity=".6" d="M81.5 75h34v34h-34z"/>
        <path fill="#FFF" d="M119.5 37h34v34h-34z"/>
        <path fill="#1B7517" opacity=".6" d="M119.5 37h34v34h-34z"/>
        <path fill="#FFF" d="M81.5 37h34v34h-34z"/>
        <path fill="#1B7517" opacity=".3" d="M81.5 37h34v34h-34z"/>
        <path fill="#797979" fill-rule="nonzero" d="m117.5 22.333 5.75 12h-5v37.916l37.916.001v-5l12 5.75-12 5.75v-5h-37.917l.001 37.916h5l-5.75 12-5.75-12h5V73.749l-37.917.001v5l-12-5.75 12-5.75v5h37.916l.001-37.917h-5z"/>
        <path d="M136.5 83a9 9 0 1 1 0 18 9 9 0 0 1 0-18z" fill="#FFF" fill-rule="nonzero"/>
        <path d="M136.5 85a7 7 0 1 0 0 14 7 7 0 0 0 0-14z" fill="green" fill-rule="nonzero"/>
        <text font-family="Lato-Black, Lato" font-size="14" font-weight="800" fill="green">
                                        <tspan x="59" y="141">High Temperature</tspan>
                                    </text>
        <text font-family="Lato-Black, Lato" font-size="14" font-weight="800" fill="green">
                                        <tspan x="192.238" y="71">High</tspan>
                                        <tspan x="178" y="86.672">Pressure</tspan>
                                    </text>
        <text font-family="Lato-Bold, Lato" font-size="14" font-weight="bold" fill="green">
                                        <tspan x="15.539" y="71">Low</tspan>
                                        <tspan x="1" y="86">Pressure</tspan>
                                    </text>
        <text font-family="Lato-Bold, Lato" font-size="14" font-weight="bold" fill="green">
                                        <tspan x="61.7" y="14">Low Temperature</tspan>
                                    </text>
    </g>
</svg>
