<?xml version="1.0" encoding="UTF-8"?>
<svg width="30px" height="43px" viewBox="0 0 30 43" version="1.1" xmlns="http://www.w3.org/2000/svg" xmlns:xlink="http://www.w3.org/1999/xlink">
    <title>28D2E85E-5AD4-4BF6-90A7-06CB760BC500</title>
    <g id="Page-1" stroke="none" stroke-width="1" fill="none" fill-rule="evenodd">
        <g id="TecRocks---Bottom-Control-Bar,-Tabs" transform="translate(-604.000000, -1604.000000)">
            <g id="Temp-Tool-w-Stem" transform="translate(604.000000, 1604.000000)">
                <rect id="Path" fill-rule="nonzero" x="0" y="0" width="30" height="43"></rect>
                <path d="M12.5,0 C15.7055804,0 18.5490121,1.5904641 20.2715022,4.05319361 L20.537156,4.02005044 L20.8847183,4 L25,4 C27.7614237,4 30,6.23857625 30,9 C30,10.3569939 29.4572971,11.5958351 28.5697661,12.5010028 C29.4547874,13.4017543 30,14.6372065 30,16 C30,17.3569939 29.4572971,18.5958351 28.5697661,19.5010028 C29.4547874,20.4017543 30,21.6372065 30,23 C30,25.4703218 28.2014879,27.5490863 25.7982237,27.936077 L25.5781124,27.9665613 L25.462844,27.9799496 L25.1152817,28 L24.7490292,28.0002452 C24.8667503,28.5791437 24.9440659,29.1699912 24.9788346,29.7691417 L24.9949141,30.1414187 L25,30.5 C25,37.4035594 19.4035594,43 12.5,43 C5.59644063,43 0,37.4035594 0,30.5 C0,27.6291706 0.97664326,24.9119694 2.70141298,22.7374121 L2.93060685,22.4568836 L3,22.376 L3,9.5 C3,4.43421574 6.96502162,0.294511906 11.9609147,0.0150386145 L12.2295213,0.00377636139 L12.5,0 Z" id="Highlight"></path>
                <g id="Temp-Tool" transform="translate(4.000000, 4.000000)" fill-rule="nonzero">
                    <circle id="Oval" fill="#FF0000" cx="8.5" cy="26.5" r="4.5"></circle>
                    <path d="M8.5,0 C11.4634791,0 13.8795391,2.34378001 13.9956328,5.27879286 L14,5.5 L14.0010304,20.0199079 C15.8358453,21.5790393 17,23.9035682 17,26.5 C17,31.1944204 13.1944204,35 8.5,35 C3.80557963,35 0,31.1944204 0,26.5 C0,23.9030966 1.16457761,21.5781949 2.99996934,20.0190584 L3,5.5 C3,2.46243388 5.46243388,0 8.5,0 Z" id="Path" fill="#797979"></path>
                    <path d="M8.5,2 C6.6314366,2 5.10487355,3.4642776 5.00517886,5.30796861 L5,5.5 L4.99996738,20.9443046 L4.29480979,21.5433249 C2.84774807,22.7725811 2,24.5651259 2,26.5 C2,30.0898509 4.91014913,33 8.5,33 C12.0898509,33 15,30.0898509 15,26.5 C15,24.6575978 14.2313501,22.9442413 12.9085114,21.7233675 L12.705956,21.5439755 L12.0010961,20.9450218 L12.0003897,5.53947751 L11.9971955,5.35784052 C11.9231737,3.48646254 10.3803304,2 8.5,2 Z" id="Path" fill="#FFFFFF"></path>
                    <rect id="Stem" fill="#FF0000" x="7" y="19" width="3" height="5"></rect>
                    <circle id="Bulb" fill="#FF0000" cx="8.5" cy="26.5" r="4.5"></circle>
                    <path d="M21,18 C21.5522847,18 22,18.4477153 22,19 C22,19.5128358 21.6139598,19.9355072 21.1166211,19.9932723 L21,20 L17,20 C16.4477153,20 16,19.5522847 16,19 C16,18.4871642 16.3860402,18.0644928 16.8833789,18.0067277 L17,18 L21,18 Z" id="Low-tick" fill="#797979"></path>
                    <path d="M21,11 C21.5522847,11 22,11.4477153 22,12 C22,12.5128358 21.6139598,12.9355072 21.1166211,12.9932723 L21,13 L17,13 C16.4477153,13 16,12.5522847 16,12 C16,11.4871642 16.3860402,11.0644928 16.8833789,11.0067277 L17,11 L21,11 Z" id="Med-tick" fill="#797979"></path>
                    <path d="M21,4 C21.5522847,4 22,4.44771525 22,5 C22,5.51283584 21.6139598,5.93550716 21.1166211,5.99327227 L21,6 L17,6 C16.4477153,6 16,5.55228475 16,5 C16,4.48716416 16.3860402,4.06449284 16.8833789,4.00672773 L17,4 L21,4 Z" id="Hi-tick" fill="#797979"></path>
                </g>
            </g>
        </g>
    </g>
</svg>
