<svg width="22" height="32" viewBox="0 0 22 32" xmlns="http://www.w3.org/2000/svg">
    <g fill="none" fill-rule="evenodd">
        <path d="M0 0h53v43H0z"/>
        <path d="M10.999 0C4.924 0 0 4.811 0 10.743c0 4.982 3.472 9.17 8.182 10.385l.016.058L10.998 32l2.803-10.814.016-.058C18.527 19.914 22 15.725 22 10.743 22 4.811 17.075 0 10.999 0" fill="#FFF"/>
        <path d="M11 2C6.58 2 3 5.609 3 10.057c0 3.737 2.525 6.878 5.95 7.79l.012.043L11 26l2.038-8.11.012-.044c3.425-.91 5.951-4.052 5.951-7.789C19 5.61 15.418 2 11 2" fill="#797979"/>
        <path d="M10.961 4.526a5.5 5.5 0 1 0 .002 11.001 5.5 5.5 0 0 0-.002-11" fill="#FFF"/>
    </g>
</svg>
