<svg width="32" height="32" viewBox="0 0 32 32" xmlns="http://www.w3.org/2000/svg">
    <g fill="none" fill-rule="evenodd">
        <path d="M0 27.997h28v-28H0z"/>
        <path d="M22.042.465c3.23.834 4.22 7.739 3.107 10.617-.233.601-2.01.695-1.788.906l.15.198c.023.03.046.056.067.08l.088.092.651.597c.203.185.381.386.537.6.201.169.39.36.562.576.254.318.416.535.585.823l.103.183 1.175 2.154.271.488.258.454.239.411.215.357.205.324.218.32-.048-.039.413.392.32.31.288.293c.372.388.774.782 1.079 1.184.305.402.892 1.281 1.036 1.75.276.898-.154 1.737-.735 2.665-1.816 2.906-7.227 6.157-10.47 5.153-1.477-.458-2.168-1.312-2.462-2.695-.135-.638-.148-1.445-.145-2.026l.004-.257.006-.175-.074-.185a10.973 10.973 0 0 0-.895-1.673l-.198-.305-.216-.32-1.243-1.781a7.098 7.098 0 0 1-.621-1.138 4.037 4.037 0 0 1-.228-.66 4.048 4.048 0 0 1-.19-.413l-.08-.218-.155-.47-.174-.563-.06-.204-.103-.327a10.199 10.199 0 0 0-.583-1.392c-2.944.48-11.21 8.676-11.806 8.676-.616 0-2.805-6.583.895-12.961 3.7-6.379 9.106-9.417 13.105-10.593C19.343.497 21.768.393 22.042.465z"/>
        <path d="M22.292 16.63c.112.14.223.28.3.422 1.25 2.29 2.532 4.736 3.294 5.458.693.656 1.617 1.501 1.476 1.834-.598 1.418-3.989 3.36-5.065 3.026-.626-.194-.132-1.339-.408-2.117-.827-2.329-1.97-3.722-3.24-5.57a3.392 3.392 0 0 1-.27-.512 8.768 8.768 0 0 0 1.767-.79 9.453 9.453 0 0 0 2.146-1.752zM20.935 4.546c.805.125 1.587 2.984 1.103 3.603a.356.356 0 0 1-.1.084c-.443.263-1.751.079-3.112.886a4.681 4.681 0 0 0-.802.6c-.835.775-1.162 2.082-1.162 2.082s-1.626-.55-3.21.053a23.144 23.144 0 0 0-2.86 1.44c-3.276 1.943-5.481 4.313-7.062 5.872a.127.127 0 0 1-.02.016c-.26.154.467-2.824 1.317-4.36 1.506-2.72 3.242-5.131 7.72-7.787l.127-.074c3.494-2.052 7.478-2.506 8.06-2.415zm-2.567 6.287c.054.25.123.503.232.758.498 1.174 1.394 2.762 2.267 3.622.174.172.456.416.747.69-.639.705-1.848 1.788-3.59 2.345-.163-.472-.297-.928-.373-1.183-.27-.909-.956-2.8-2.025-3.905a4.999 4.999 0 0 0-.707-.592 4.649 4.649 0 0 1 1.632.168l1.005.328.262-1.024c.056-.217.244-.756.55-1.207z" fill="#797979"/>
    </g>
</svg>
