<svg width="36" height="52" viewBox="0 0 36 52" xmlns="http://www.w3.org/2000/svg">
    <g fill="none" fill-rule="evenodd">
        <path d="M0 0h36v52H0z"/>
        <path d="M17.998 1C8.61 1 1 8.471 1 17.683c0 7.736 5.366 14.24 12.645 16.126l.025.09 4.328 16.793 4.331-16.793.025-.09C29.633 31.923 35 25.42 35 17.683 35 8.47 27.389 1 17.998 1" fill="#EA6D2F"/>
        <path d="m17.998.5.329.003C27.839.675 35.5 8.3 35.5 17.683c0 7.847-5.404 14.637-13.021 16.61l.285-.078-4.282 16.601c-.12.467-.747.498-.935.094l-.033-.094-4.279-16.6-.065-.017C5.855 32.143.664 25.618.504 18.044L.5 17.683C.5 8.193 8.337.5 17.998.5zm-.32 1.003C8.711 1.671 1.5 8.853 1.5 17.683c0 7.386 5.09 13.782 12.27 15.642a.5.5 0 0 1 .358.353l.026.097 3.844 14.914 3.849-14.92.024-.09a.5.5 0 0 1 .357-.354C29.41 31.465 34.5 25.07 34.5 17.683 34.5 8.749 27.114 1.5 17.998 1.5l-.32.003z" fill="#FFF" fill-rule="nonzero"/>
        <path d="M18 6.23C11.5 6.23 6.23 11.5 6.23 18S11.502 29.77 18 29.77c6.498 0 11.769-5.27 11.769-11.769 0-6.5-5.27-11.77-11.77-11.77" fill="#DA0006"/>
        <circle stroke="#FFF" stroke-width="2" cx="18" cy="18" r="11"/>
        <path fill="#FFF" fill-rule="nonzero" d="M24.01 14.11 20.121 18l3.89 3.89-2.122 2.12L18 20.121l-3.89 3.89-2.12-2.122L15.879 18l-3.89-3.89 2.122-2.12L18 15.879l3.89-3.89z"/>
    </g>
</svg>
