<?xml version="1.0" encoding="UTF-8"?>
<svg width="53px" height="43px" viewBox="0 0 53 43" version="1.1" xmlns="http://www.w3.org/2000/svg" xmlns:xlink="http://www.w3.org/1999/xlink">
    <title>83431A15-8AEE-419C-8F93-03BC09124697</title>
    <g id="Page-1" stroke="none" stroke-width="1" fill="none" fill-rule="evenodd">
        <g id="TecRocks---Bottom-Control-Bar,-Tabs" transform="translate(-644.000000, -1604.000000)">
            <g id="Pressure-Tool-w-Needle" transform="translate(644.000000, 1604.000000)">
                <rect id="Path" fill-rule="nonzero" x="0" y="0" width="53" height="43"></rect>
                <path d="M26.5,0 C11.8644541,0 0,11.8644541 0,26.5 C0,31.8103454 1.56927599,36.8972597 4.46162977,41.220244 L5.64834275,42.9939349 L11.6867003,42.9980156 L45.2059593,43.0023243 L47.3438725,43.0042543 L48.5333283,41.227777 C51.4288673,36.9032285 53,31.813479 53,26.5 C53,11.8644541 41.1355459,0 26.5,0 Z" id="Highlight"></path>
                <g id="Pressure-Tool" transform="translate(4.000000, 4.000000)" fill-rule="nonzero">
                    <path d="M22.5,0 C34.9264069,0 45,10.0735931 45,22.5 C45,27.1263697 43.6037154,31.4266197 41.2095702,35.002326 L35.6401546,34.9999013 L3.7861477,34.9959283 C1.39461977,31.4214908 0,27.1236109 0,22.5 C0,10.0735931 10.0735931,0 22.5,0 Z" id="Gauge-outer" fill="#797979"></path>
                    <path d="M22.5,2 C11.1781626,2 2,11.1781626 2,22.5 C2,26.1385007 2.94813617,29.6317753 4.71536324,32.7037908 L4.888,32.996 L14.7612711,32.9990086 L40.109,33.001 L40.2815472,32.7091617 C41.9738205,29.7695004 42.9159059,26.4437804 42.9946273,22.9740193 L43,22.5 C43,11.2936916 34.0081912,2.18753265 22.8459098,2.00285951 L22.5,2 Z" id="Gauge-inner" fill="#FFFFFF"></path>
                    <path d="M38.9375235,31.0011603 L31.6656713,31.0011603 C35.9865249,26.3479218 36.1079329,19.2046677 32.0298954,14.4114995 L36.2821352,10.1596327 C41.5069601,15.9839395 42.3920895,24.3242321 38.9375235,31.0011603 Z" id="High" fill="#00239E"></path>
                    <path d="M34.8686268,8.74356092 L30.6178358,12.9955661 C25.953749,9.00514212 19.0479501,9.00541252 14.3841671,12.9963773 L10.1330959,8.74466684 C17.0558824,2.51055202 27.5515465,2.42360862 34.5739905,8.48383664 L34.8686268,8.74356092 Z" id="Med" fill="#2C54E0"></path>
                    <path d="M8.71945177,10.1611532 L12.9717129,14.4130777 C8.89502613,19.2062574 9.01690133,26.3484975 13.3373386,31.0012238 L6.06540275,31.0009401 C2.67072199,24.4398728 3.46663269,16.2724476 8.45313485,10.4646278 L8.71945177,10.1611532 Z" id="Low" fill="#6C8CFF"></path>
                    <g id="Pressure-Tool-Needle" transform="translate(17.000000, 5.000000)">
                        <rect id="Path" x="0" y="0" width="11" height="27"></rect>
                        <path d="M5.5,0.5 C6.81119717,0.5 7.91207659,1.4643186 8.09951687,2.7448932 L8.11872763,2.91366491 L8.96090461,13.2251741 C10.204868,14.2335359 11,15.7739114 11,17.5 C11,18.9043282 10.4736795,20.1857276 9.60753456,21.1577021 L9.71191758,22.4302418 C9.90180965,24.7564197 8.17000786,26.7960974 5.84383001,26.9859894 C5.72945777,26.9953259 5.61475269,27 5.5,27 C3.16608432,27 1.27407184,25.1079875 1.27407184,22.7740718 L1.27757594,22.6020142 L1.27757594,22.6020142 L1.28808242,22.4302418 L1.39246544,21.1577021 C0.526320536,20.1857276 0,18.9043282 0,17.5 C0,15.7739114 0.795132015,14.2335359 2.03909539,13.2251741 L2.88127237,2.91366491 C2.99259234,1.54999529 4.13179425,0.5 5.5,0.5 Z" id="Needle-outer" fill="#FFFFFF"></path>
                        <path d="M5.5,2.25 C5.95691516,2.25 6.33735402,2.60064812 6.37452955,3.05604843 L7.30902513,14.5031587 C8.32254098,15.1162753 9,16.2290231 9,17.5 C9,18.5662052 8.52325151,19.5210598 7.77130126,20.1630171 L7.96771951,22.5726254 C8.07897533,23.9355092 7.06433034,25.1305355 5.70144649,25.2417913 C5.63443696,25.2472615 5.56723243,25.25 5.5,25.25 C4.13258264,25.25 3.02407184,24.1414892 3.02407184,22.7740718 C3.02407184,22.7068394 3.02681033,22.6396349 3.03228049,22.5726254 L3.22869874,20.1630171 C2.47674849,19.5210598 2,18.5662052 2,17.5 C2,16.2290231 2.67745902,15.1162753 3.69097487,14.5031587 L4.62547045,3.05604843 C4.66264598,2.60064812 5.04308484,2.25 5.5,2.25 Z" id="Needle-inner" fill="#000000"></path>
                        <circle id="Pivot" fill="#FFFFFF" cx="5.5" cy="17.5" r="2"></circle>
                    </g>
                </g>
            </g>
        </g>
    </g>
</svg>
