<svg width="28" height="30" viewBox="0 0 28 30" xmlns="http://www.w3.org/2000/svg">
    <g fill="none" fill-rule="evenodd">
        <path d="M0 0h28v30.003H0z"/>
        <path d="M15.132 1.462a4.996 4.996 0 0 1 6.886-.172l.18.172 2.34 2.34a4.997 4.997 0 0 1 .173 6.887l-.173.18-7.131 7.132H28v12.002H0V18.002L2 18v-3.407L15.132 1.462z"/>
        <path d="M24 26.002H4v-4h20v4zM15.06 7.191l3.75 3.75L9.75 20H6v-3.75l9.06-9.06zm4.82 2.68-3.75-3.75 1.83-1.83a.996.996 0 0 1 1.41 0l2.34 2.34c.39.39.39 1.02 0 1.41l-1.83 1.83z" fill="#797979" fill-rule="nonzero"/>
    </g>
</svg>
