<svg width="30" height="30" viewBox="0 0 30 30" xmlns="http://www.w3.org/2000/svg">
    <g fill="none" fill-rule="evenodd">
        <path d="M0 0h30v30H0z"/>
        <path d="M14 4v5.083a6.04 6.04 0 0 1 2 0V4h6a4 4 0 0 1 3.995 3.8L26 8v6h-5.083a6.04 6.04 0 0 1 0 2H26v6a4 4 0 0 1-3.8 3.995L22 26h-6v-5.083a6.04 6.04 0 0 1-2 0V26H8a4 4 0 0 1-3.995-3.8L4 22v-6h5.083a6.04 6.04 0 0 1 0-2H4V8a4 4 0 0 1 3.8-3.995L8 4h6zm4.317 16H20v-1.683A6.033 6.033 0 0 1 18.318 20zM10 18.319V20h1.683A6.033 6.033 0 0 1 10 18.319zm10-6.635V10h-1.682A6.033 6.033 0 0 1 20 11.683zM11.683 10H10v1.682A6.033 6.033 0 0 1 11.682 10z" fill="#FFF"/>
        <path d="M8 18v4h4v2H8a2 2 0 0 1-2-2v-4h2zm16 0v4a2 2 0 0 1-2 2h-4v-2h4v-4h2zm-9-7a4 4 0 1 1 0 8 4 4 0 0 1 0-8zm-3-5v2H8v4H6V8a2 2 0 0 1 2-2h4zm10 0a2 2 0 0 1 2 2v4h-2V8h-4V6h4z" fill="#797979" fill-rule="nonzero"/>
    </g>
</svg>
