<svg width="28" height="33" viewBox="0 0 28 33" xmlns="http://www.w3.org/2000/svg">
    <g fill-rule="nonzero" fill="none">
        <path d="M0 0h53v43H0z"/>
        <path d="M13.7 33c-4.595-3.767-8.027-7.267-10.296-10.498C1.134 19.27 0 16.28 0 13.53c0-4.125 1.377-7.411 4.131-9.859C6.886 1.224 10.075 0 13.7 0c3.625 0 6.814 1.224 9.569 3.671C26.023 6.12 27.4 9.405 27.4 13.53c0 2.75-1.135 5.74-3.404 8.972-2.269 3.231-5.7 6.73-10.296 10.498z" fill="#FFF"/>
        <path d="M13.6 15.7c.58 0 1.075-.205 1.485-.615.41-.41.615-.905.615-1.485 0-.58-.205-1.075-.615-1.485A2.023 2.023 0 0 0 13.6 11.5c-.58 0-1.075.205-1.485.615-.41.41-.615.905-.615 1.485 0 .58.205 1.075.615 1.485.41.41.905.615 1.485.615zm0 12.3c-3.22-2.74-5.625-5.285-7.215-7.635C4.795 18.015 4 15.84 4 13.84c0-3 .965-5.39 2.895-7.17C8.825 4.89 11.06 4 13.6 4s4.775.89 6.705 2.67c1.93 1.78 2.895 4.17 2.895 7.17 0 2-.795 4.175-2.385 6.525-1.59 2.35-3.995 4.895-7.215 7.635z" fill="#797979"/>
    </g>
</svg>
