<svg width="11" height="27" viewBox="0 0 11 27" xmlns="http://www.w3.org/2000/svg">
    <g fill-rule="nonzero" fill="none">
        <path d="M0 0h11v27H0z"/>
        <path d="M5.5.5c1.311 0 2.412.964 2.6 2.245l.019.169.842 10.311A5.49 5.49 0 0 1 11 17.5a5.48 5.48 0 0 1-1.392 3.658l.104 1.272a4.226 4.226 0 1 1-8.438.344l.004-.172.01-.172.104-1.272A5.48 5.48 0 0 1 0 17.5a5.49 5.49 0 0 1 2.04-4.275L2.88 2.914A2.627 2.627 0 0 1 5.5.5z" fill="#FFF"/>
        <path d="M5.5 2.25c.457 0 .837.35.875.806l.934 11.447a3.498 3.498 0 0 1 .462 5.66l.197 2.41a2.476 2.476 0 1 1-4.936 0l.197-2.41a3.498 3.498 0 0 1 .462-5.66l.934-11.447A.877.877 0 0 1 5.5 2.25z" fill="#000"/>
        <circle fill="#FFF" cx="5.5" cy="17.5" r="2"/>
    </g>
</svg>
