<svg width="39" height="32" viewBox="0 0 39 32" xmlns="http://www.w3.org/2000/svg">
    <g fill="none" fill-rule="evenodd">
        <path d="M0 0h39v32H0z"/>
        <path d="M19.5 0C8.735 0 0 8.694 0 19.428c0 3.895 1.157 7.628 3.289 10.8a4 4 0 0 0 3.315 1.768l2.565.001L32.385 32a4 4 0 0 0 3.323-1.767A19.302 19.302 0 0 0 39 19.428C39 8.694 30.265 0 19.5 0z" fill="#FFF"/>
        <g transform="translate(4 4)" fill-rule="nonzero">
            <path d="M15.5 0C24.06 0 31 6.907 31 15.428c0 3.172-.962 6.12-2.611 8.572l-6.474-.002-19.307-.002A15.305 15.305 0 0 1 0 15.428C0 6.908 6.94 0 15.5 0z" fill="#797979"/>
            <path d="M15.5 1.25c-7.871 0-14.25 6.349-14.25 14.178 0 2.559.682 5.014 1.95 7.165l.094.153 24.409.003.094-.152a14.041 14.041 0 0 0 1.947-6.744l.006-.425c0-7.725-6.21-14.008-13.936-14.175L15.5 1.25z" fill="#FFF"/>
            <path d="M26.824 21.257h-5.01a8.542 8.542 0 0 0 .251-11.375l2.93-2.916a12.647 12.647 0 0 1 1.829 14.29z" fill="#4E4E4E"/>
            <path d="m24.02 5.995-2.928 2.916a8.644 8.644 0 0 0-11.183 0L6.981 5.996C11.75 1.72 18.98 1.662 23.818 5.817l.203.178z" fill="#797979"/>
            <path d="m6.007 6.967 2.93 2.916a8.542 8.542 0 0 0 .25 11.374H4.179A12.647 12.647 0 0 1 5.823 7.174l.184-.208z" fill="#949494"/>
            <path d="M27.081 14.078a1.747 1.747 0 0 0-1.804-1.532l-13.4.54a2.846 2.846 0 1 0 .692 5.632l13.133-2.717a1.747 1.747 0 0 0 1.38-1.923z" fill="#FFF"/>
            <path d="M15.5 13.028c.794 0 1.498.381 1.937.97l7.886-.318a.612.612 0 0 1 .149 1.21l-7.817 1.616a2.412 2.412 0 0 1-2.155 1.321 2.408 2.408 0 0 1-1.542-.555l-1.62.335a1.711 1.711 0 0 1-2.022-1.33l-.023-.138a1.711 1.711 0 0 1 1.49-1.907l.07-.007 1.6-.066a2.412 2.412 0 0 1 2.047-1.131z" fill="#797979"/>
            <ellipse fill="#FFF" cx="15.5" cy="15.428" rx="1.378" ry="1.371"/>
        </g>
    </g>
</svg>
