<svg width="53" height="43" viewBox="0 0 53 43" xmlns="http://www.w3.org/2000/svg">
    <g fill="none" fill-rule="evenodd">
        <path d="M0 0h53v43H0z"/>
        <path d="M26.5 0C11.864 0 0 11.864 0 26.5c0 5.31 1.57 10.397 4.462 14.72l1.186 1.774 6.039.004 33.519.004 2.138.002 1.19-1.776A26.392 26.392 0 0 0 53 26.5C53 11.864 41.136 0 26.5 0z"/>
        <g fill-rule="nonzero">
            <path d="M26.5 4C38.926 4 49 14.074 49 26.5c0 4.626-1.396 8.927-3.79 12.502L39.64 39l-31.854-.004A22.395 22.395 0 0 1 4 26.5C4 14.074 14.074 4 26.5 4z" fill="#797979"/>
            <path d="M26.5 6C15.178 6 6 15.178 6 26.5c0 3.639.948 7.132 2.715 10.204l.173.292 9.873.003 25.348.002.173-.292a20.383 20.383 0 0 0 2.713-9.735L47 26.5c0-11.206-8.992-20.312-20.154-20.497L26.5 6z" fill="#FFF"/>
            <path d="M42.938 35.001h-7.272c4.32-4.653 4.442-11.796.364-16.59l4.252-4.251c5.225 5.824 6.11 14.164 2.656 20.841z" fill="#00239E"/>
            <path d="m38.869 12.744-4.251 4.252c-4.664-3.99-11.57-3.99-16.234 0l-4.25-4.251c6.922-6.234 17.418-6.321 24.44-.261l.295.26z" fill="#2C54E0"/>
            <path d="m12.72 14.161 4.252 4.252c-4.077 4.793-3.955 11.935.365 16.588h-7.272c-3.394-6.561-2.598-14.729 2.388-20.536l.266-.304z" fill="#6C8CFF"/>
        </g>
    </g>
</svg>
