<?xml version="1.0" encoding="UTF-8" standalone="no"?>
<svg
   xmlns:dc="http://purl.org/dc/elements/1.1/"
   xmlns:cc="http://creativecommons.org/ns#"
   xmlns:rdf="http://www.w3.org/1999/02/22-rdf-syntax-ns#"
   xmlns:svg="http://www.w3.org/2000/svg"
   xmlns="http://www.w3.org/2000/svg"
   viewBox="0 0 584 685.33331"
   height="685.33331"
   width="584"
   xml:space="preserve"
   id="svg2"
   version="1.1"><metadata
     id="metadata8"><rdf:RDF><cc:Work
         rdf:about=""><dc:format>image/svg+xml</dc:format><dc:type
           rdf:resource="http://purl.org/dc/dcmitype/StillImage" /></cc:Work></rdf:RDF></metadata><defs
     id="defs6" /><g
     transform="matrix(1.3333333,0,0,-1.3333333,0,685.33333)"
     id="g10"><g
       transform="scale(0.1)"
       id="g12"><path
         id="path14"
         style="fill:#231f20;fill-opacity:1;fill-rule:nonzero;stroke:none"
         d="m 462.316,636.516 h 125.95 v 397.554 h 40.808 c 9.856,0 15.481,-5.63 15.481,-15.48 v -27.449 h 109.062 v 99.919 c 0,35.89 -12.668,48.55 -48.551,48.55 H 345.512 c -35.883,0 -48.551,-12.66 -48.551,-48.55 v -99.919 h 109.062 v 27.449 c 0,9.85 5.625,15.48 15.481,15.48 h 40.812 V 636.516" /><path
         id="path16"
         style="fill:#231f20;fill-opacity:1;fill-rule:nonzero;stroke:none"
         d="m 858.484,687.879 c 0,-35.883 15.485,-51.363 51.364,-51.363 h 236.422 c 35.88,0 51.36,15.48 51.36,51.363 v 97.101 h -112.58 v -27.445 c 0,-9.844 -5.63,-15.48 -15.47,-15.48 h -69.662 c -9.855,0 -15.48,5.636 -15.48,15.48 v 79.516 H 1127.97 V 942.594 H 984.438 v 91.476 h 68.252 c 9.85,0 15.48,-5.63 15.48,-15.48 v -27.449 h 112.57 v 97.099 c 0,35.89 -15.47,51.37 -51.36,51.37 H 812.746 v -105.54 h 45.738 V 687.879" /><path
         id="path18"
         style="fill:#231f20;fill-opacity:1;fill-rule:nonzero;stroke:none"
         d="m 1235.11,893.344 c 0,-151.289 104.84,-265.27 263.86,-265.27 133.69,0 209.69,90.059 209.69,90.059 l -64.04,90.07 c 0,0 -55.59,-64.035 -143.55,-64.035 -73.87,0 -135.08,66.848 -135.08,149.176 0,91.465 59.1,138.606 132.27,138.606 32.37,0 77.4,-11.25 77.4,-40.098 v -27.446 h 112.59 v 66.144 c 0,94.28 -132.99,117.5 -192.8,117.5 -149.88,0 -260.34,-110.46 -260.34,-254.706" /><path
         id="path20"
         style="fill:#231f20;fill-opacity:1;fill-rule:nonzero;stroke:none"
         d="m 1915.17,636.516 h 125.95 v 397.554 h 40.81 c 9.86,0 15.48,-5.63 15.48,-15.48 v -27.449 h 109.07 v 99.919 c 0,35.89 -12.67,48.55 -48.55,48.55 h -359.56 c -35.88,0 -48.55,-12.66 -48.55,-48.55 v -99.919 h 109.06 v 27.449 c 0,9.85 5.63,15.48 15.48,15.48 h 40.81 V 636.516" /><path
         id="path22"
         style="fill:#231f20;fill-opacity:1;fill-rule:evenodd;stroke:none"
         d="m 2242.21,891.227 c 0,-147.766 111.17,-263.153 263.15,-263.153 151.98,0 263.16,115.387 263.16,263.153 0,144.243 -111.18,256.823 -263.16,256.823 -151.98,0 -263.15,-112.58 -263.15,-256.823 z m 130.87,0 c 0,80.214 59.11,140.723 132.28,140.723 73.18,0 132.28,-60.509 132.28,-140.723 0,-83.735 -59.1,-147.059 -132.28,-147.059 -73.17,0 -132.28,63.324 -132.28,147.059" /><path
         id="path24"
         style="fill:#231f20;fill-opacity:1;fill-rule:evenodd;stroke:none"
         d="m 2805.1,636.516 h 120.33 c 35.88,0 51.36,15.48 51.36,51.363 v 163.945 c 0,31.664 -5.63,75.285 -5.63,75.285 h 1.41 c 0,0 21.11,-43.621 42.22,-75.285 L 3154.8,636.516 h 112.58 v 382.074 c 0,9.85 5.63,15.48 15.49,15.48 h 30.25 v 105.54 H 3192.8 c -35.89,0 -51.37,-15.48 -51.37,-51.37 V 923.598 c 0,-31.66 5.64,-75.293 5.64,-75.293 h -1.42 c 0,0 -21.11,42.922 -42.21,75.293 L 2964.12,1139.61 H 2850.84 V 757.535 c 0,-9.844 -5.63,-15.48 -15.48,-15.48 H 2805.1 V 636.516" /><path
         id="path26"
         style="fill:#231f20;fill-opacity:1;fill-rule:nonzero;stroke:none"
         d="m 3361.86,629.293 h 224.46 v 105.539 h -52.78 v 292.008 h 52.78 v 105.55 h -224.46 v -105.55 h 52.77 V 734.832 h -52.77 V 629.293" /><path
         id="path28"
         style="fill:#231f20;fill-opacity:1;fill-rule:nonzero;stroke:none"
         d="m 3610.57,886.121 c 0,-151.289 104.84,-265.266 263.86,-265.266 133.7,0 209.69,90.055 209.69,90.055 l -64.04,90.07 c 0,0 -55.59,-64.031 -143.54,-64.031 -73.88,0 -135.09,66.844 -135.09,149.172 0,91.465 59.1,138.609 132.27,138.609 32.37,0 77.41,-11.25 77.41,-40.101 v -27.441 h 112.58 v 66.132 c 0,94.29 -132.99,117.52 -192.8,117.52 -149.87,0 -260.34,-110.47 -260.34,-254.719" /><path
         id="path30"
         style="fill:#231f20;fill-opacity:1;fill-rule:nonzero;stroke:none"
         d="m 343.172,66.7188 c 0,-34.9141 14.555,-49.4649 49.476,-49.4649 h 234.239 c 34.187,0 49.472,14.5508 49.472,49.4649 v 78.5662 h -86.57 v -31.281 c 0,-10.18 -5.828,-16.0079 -16.008,-16.0079 H 454.477 c -10.18,0 -16.008,5.8279 -16.008,16.0079 v 122.949 h 167.324 v 80.742 H 438.469 v 135.313 h 116.398 c 10.192,0 16.004,-5.817 16.004,-16.008 v -31.277 h 86.574 v 78.566 c 0,34.188 -15.285,49.473 -49.472,49.473 H 295.887 v -80.754 h 47.285 V 66.7188" /><path
         id="path32"
         style="fill:#231f20;fill-opacity:1;fill-rule:nonzero;stroke:none"
         d="m 735.793,17.2539 h 106.93 l 79.3,136.0351 c 17.461,29.824 31.282,60.387 31.282,60.387 h 1.453 c 0,0 15.273,-29.828 32.734,-60.387 L 1067.52,17.2539 h 106.94 l -160.78,261.8911 96.76,156.402 c 9.46,15.273 15.27,17.461 31.28,17.461 h 21.82 v 80.754 h -58.93 c -34.91,0 -49.46,-7.282 -66.92,-37.828 l -50.198,-85.852 c -17.461,-29.824 -31.277,-62.559 -31.277,-62.559 h -1.457 c 0,0 -16.004,32.735 -32.735,62.559 l -49.472,85.852 c -17.449,29.824 -31.281,37.828 -66.192,37.828 h -59.652 v -80.754 h 21.82 c 16.008,0 21.825,-1.453 31.282,-17.461 L 895.84,279.145 735.793,17.2539" /><path
         id="path34"
         style="fill:#231f20;fill-opacity:1;fill-rule:evenodd;stroke:none"
         d="m 1295.62,17.2539 h 95.3 V 195.48 h 93.84 c 96.76,0 164.42,69.844 164.42,170.235 0,100.39 -67.66,168.047 -164.42,168.047 h -236.43 v -80.754 h 47.29 z m 95.3,259.7031 v 176.051 h 77.85 c 52.37,0 82.93,-34.188 82.93,-87.293 0,-53.836 -30.56,-88.758 -84.39,-88.758 h -76.39" /><path
         id="path36"
         style="fill:#231f20;fill-opacity:1;fill-rule:nonzero;stroke:none"
         d="m 1763.12,66.7188 c 0,-34.9141 14.55,-49.4649 49.47,-49.4649 h 227.7 c 34.91,0 49.47,14.5508 49.47,49.4649 v 78.5662 h -86.57 v -31.281 c 0,-10.18 -5.82,-16.0079 -16.01,-16.0079 h -112.76 c -10.18,0 -16,5.8279 -16,16.0079 v 370.285 c 0,34.188 -14.54,49.473 -49.47,49.473 h -93.12 v -80.754 h 31.28 c 10.19,0 16.01,-5.817 16.01,-16.008 V 66.7188" /><path
         id="path38"
         style="fill:#231f20;fill-opacity:1;fill-rule:evenodd;stroke:none"
         d="m 2127.53,279.145 c 0,-152.043 114.94,-270.61766 266.99,-270.61766 152.03,0 266.98,118.57466 266.98,270.61766 0,147.675 -114.95,263.343 -266.98,263.343 -152.05,0 -266.99,-115.668 -266.99,-263.343 z m 98.93,0 c 0,98.937 74.93,174.593 168.06,174.593 93.1,0 168.04,-75.656 168.04,-174.593 0,-103.301 -74.94,-181.8677 -168.04,-181.8677 -93.13,0 -168.06,78.5667 -168.06,181.8677" /><path
         id="path40"
         style="fill:#231f20;fill-opacity:1;fill-rule:evenodd;stroke:none"
         d="m 2768.22,17.2539 h 95.3 V 210.031 h 48.02 c 26.9,0 37.83,-3.64 48.74,-24.008 l 66.19,-130.2183 c 16.74,-32.7344 33.47,-38.5508 72.02,-38.5508 h 50.19 v 80.7422 h -9.45 c -16,0 -28.37,1.4648 -36.37,16.7419 l -50.19,99.657 c -9.46,18.918 -25.47,26.195 -25.47,26.195 v 1.457 c 21.82,4.363 85.84,42.914 85.84,136.035 0,97.481 -66.2,155.68 -160.77,155.68 h -231.34 v -80.754 h 47.29 z m 95.3,274.2541 v 161.5 h 77.11 c 46.56,0 74.93,-29.094 74.93,-80.024 0,-51.648 -28.37,-81.476 -76.38,-81.476 h -75.66" /><path
         id="path42"
         style="fill:#231f20;fill-opacity:1;fill-rule:nonzero;stroke:none"
         d="m 3255.41,66.7188 c 0,-34.9141 14.55,-49.4649 49.47,-49.4649 h 234.24 c 34.18,0 49.47,14.5508 49.47,49.4649 v 78.5662 h -86.57 v -31.281 c 0,-10.18 -5.82,-16.0079 -16,-16.0079 h -119.31 c -10.18,0 -16.01,5.8279 -16.01,16.0079 v 122.949 h 167.33 v 80.742 H 3350.7 v 135.313 h 116.4 c 10.19,0 16.01,-5.817 16.01,-16.008 v -31.277 h 86.57 v 78.566 c 0,34.188 -15.29,49.473 -49.48,49.473 h -312.08 v -80.754 h 47.29 V 66.7188" /><path
         id="path44"
         style="fill:#231f20;fill-opacity:1;fill-rule:evenodd;stroke:none"
         d="m 3695.31,17.2539 h 95.3 V 210.031 h 48.02 c 26.91,0 37.83,-3.64 48.74,-24.008 l 66.19,-130.2183 c 16.74,-32.7344 33.47,-38.5508 72.02,-38.5508 h 50.2 v 80.7422 h -9.46 c -16,0 -28.36,1.4648 -36.36,16.7419 l -50.2,99.657 c -9.46,18.918 -25.46,26.195 -25.46,26.195 v 1.457 c 21.82,4.363 85.84,42.914 85.84,136.035 0,97.481 -66.21,155.68 -160.77,155.68 h -231.34 v -80.754 h 47.28 z m 95.3,274.2541 v 161.5 h 77.12 c 46.55,0 74.92,-29.094 74.92,-80.024 0,-51.648 -28.37,-81.476 -76.38,-81.476 h -75.66" /><path
         id="path46"
         style="fill:#8dcbd6;fill-opacity:1;fill-rule:nonzero;stroke:none"
         d="M 0.925781,3235.68 1095.46,5131.47 H 3284.54 L 4379.08,3235.68 3284.54,1339.89 H 1095.47 L 0.925781,3235.68" /><path
         id="path48"
         style="fill:#b84911;fill-opacity:1;fill-rule:evenodd;stroke:none"
         d="m 3969.28,2525.89 -684.74,-1186 H 1095.47 l -676.415,1171.57 589.715,-0.27 c 149.62,0 295.44,16.27 435.78,47.15 -79.58,-145.82 -141.7,-302.52 -183.56,-467.32 l 321.09,-219.84 c 0,0 14.12,67.34 26.95,119.36 8.49,34.45 18.06,68.47 28.67,102.02 l -1.52,-5.2 316.47,-213.27 c 0,0 21.45,100.55 68.05,213.2 l 307.19,-213.45 c 119.35,377.92 472.72,651.89 890.1,651.89 l 751.29,0.16" /><path
         id="path50"
         style="fill:#fab93d;fill-opacity:1;fill-rule:nonzero;stroke:none"
         d="m 1609.03,1990.54 c -12.83,-52.02 -26.95,-119.36 -26.95,-119.36 l -321.09,219.84 c 221.96,873.97 1013.97,1520.47 1957,1520.47 l 944.31,-0.35 209.09,-362.15 -1153.4,0.57 c -777.97,0 -1430.71,-536.09 -1608.96,-1259.02" /><path
         id="path52"
         style="fill:#f89c22;fill-opacity:1;fill-rule:nonzero;stroke:none"
         d="m 3217.99,3249.56 h 1153.07 l 8.02,-13.88 -201.3,-348.65 -959.79,0.62 c -539.51,0 -1001.96,-329.86 -1196.69,-798.91 -47.01,-113.23 -68.65,-214.65 -68.65,-214.65 l -316.47,213.27 c 0,0 8.2,29.87 31.95,92.51 237.04,625.26 841.5,1069.69 1549.86,1069.69" /><path
         id="path54"
         style="fill:#f36917;fill-opacity:1;fill-rule:nonzero;stroke:none"
         d="m 2327.89,1873.84 -307.19,213.45 c 194.37,469.82 657.23,800.36 1197.29,800.36 l 959.79,-0.62 -208.5,-361.14 -751.29,-0.16 c -417.38,0 -770.75,-273.97 -890.1,-651.89" /><path
         id="path56"
         style="fill:#46ae33;fill-opacity:1;fill-rule:nonzero;stroke:none"
         d="m 3027.79,4530.21 c 0,-1115.09 -903.93,-2019.02 -2019.02,-2019.02 l -589.715,0.27 -209.086,362.15 798.801,-0.49 c 915.2,0 1657.09,741.89 1657.09,1657.09 l 0.86,228.11 357.88,-218.15 3.19,-9.96" /><path
         id="path58"
         style="fill:#5bbc42;fill-opacity:1;fill-rule:nonzero;stroke:none"
         d="m 2665.86,4530.21 c 0,-915.2 -741.89,-1657.09 -1657.09,-1657.09 H 210.246 L 0.925781,3235.68 1008.77,3235.04 c 715.32,0 1295.18,579.85 1295.18,1295.17 l -0.72,231.02 362.26,-221.06 0.37,-9.96" /><path
         id="path60"
         style="fill:#7aca48;fill-opacity:1;fill-rule:nonzero;stroke:none"
         d="m 1008.77,3235.04 -1007.75437,0.79 208.37137,360.92 799.383,0.2 c 515.44,0 933.27,417.82 933.27,933.26 l -0.04,231.02 361.17,-221.06 0.78,-9.96 c 0,-715.32 -579.86,-1295.17 -1295.18,-1295.17" /><path
         id="path62"
         style="fill:#38791e;fill-opacity:1;fill-rule:nonzero;stroke:none"
         d="m 1444.55,2558.34 c 133.27,244.18 315.49,457.79 533.49,627.66 17.98,12.99 35.69,26.33 53.12,40.01 220.76,160.67 475.34,277.67 751.05,338.33 -133.26,-244.18 -315.49,-457.79 -533.48,-627.66 -17.98,-12.99 -35.69,-26.33 -53.12,-40.01 C 1974.85,2736 1720.27,2618.99 1444.55,2558.34" /><path
         id="path64"
         style="fill:#f36917;fill-opacity:1;fill-rule:nonzero;stroke:none"
         d="m 3852.38,2326.46 -4.6,-11.02 -4.56,3.27 c -0.73,0.53 -2.4,3.71 -2.42,4.62 l -2.26,119.7 c -0.04,2.01 2.21,5.1 4.13,5.68 l 92.54,28.06 c 0.75,0.23 4.23,-0.28 4.89,-0.71 l -6.47,-11.93 -83.37,-25.28 z m -3116.044,-82.96 -124.633,-36.14 -7.254,-17.01 -7.273,12.6 4.902,11.51 c 0.317,0.74 2.961,3.08 3.735,3.3 l 128.89,37.38 c 0.25,0.07 2.965,0.08 3.215,0 l 120.168,-34.28 c 0.477,-0.14 3.051,-2.07 3.316,-2.49 l 62.539,-98.84 c 0.164,-0.26 0.907,-3 0.895,-3.31 l -4.434,-128.5 c -0.035,-1.05 -1.875,-4.21 -2.765,-4.76 L 788.629,1903.7 c -0.949,-0.59 -4.633,-0.75 -5.633,-0.26 l -18.09,8.99 -10.515,18.21 30.894,-15.34 123.598,75.94 4.265,123.59 -60.39,95.45 z m 51.074,267.79 -11.472,-26.94 71.875,-78.99 112.074,12.45 61.543,80.9 -4.69,12.5 12.39,0.08 4.32,-11.5 c 0.39,-1.04 -0.15,-4.69 -0.82,-5.57 l -64.989,-85.43 c -0.391,-0.52 -3.344,-2.19 -3.989,-2.26 l -117.5,-13.06 c -0.937,-0.1 -4.312,1.17 -4.945,1.87 l -76.387,83.94 c -1.004,1.11 -1.632,4.83 -1.05,6.2 l 10.996,25.82 z m 273.52,-240.7 c 0.87,-0.34 3.27,-3.04 3.5,-3.93 l 12.91,-49.01 c 0.22,-0.85 -0.5,-4.35 -1.03,-5.04 l -34.28,-44.26 c -0.9,-1.15 -4.44,-2.43 -5.87,-2.12 l -57.285,12.8 c -0.441,0.1 -3.094,1.8 -3.367,2.17 l -32.883,43.47 c -0.949,1.26 -1.187,5.04 -0.406,6.4 l 23.109,40.34 c 0.387,0.68 3.258,2.7 4.027,2.84 l 54.985,9.79 c 0.25,0.05 2.92,-0.22 3.15,-0.31 z m -7,-9.75 -29.16,11.46 -50.7,-9.03 -19.847,-34.64 29.277,-38.71 51.59,-11.53 30.26,39.07 z m 171.98,-58.21 67.3,1.27 -3.67,-11.7 -60.87,-1.15 -95.97,-107.66 -1.03,-77.5 68.52,-94.54 137.49,-19.67 75.7,95 9.63,-6.59 -78.3,-98.26 c -0.75,-0.94 -4.19,-2.31 -5.37,-2.13 l -143.23,20.48 c -0.63,0.09 -3.52,1.84 -3.89,2.35 l -71.1,98.1 c -0.22,0.29 -1.12,3.13 -1.11,3.49 l 1.09,81.6 c 0.01,0.47 1.15,3.44 1.47,3.79 l 99.11,111.18 c 0.44,0.5 3.55,1.93 4.23,1.94 z m 9.26,263.41 -64.78,3.08 -73.46,-32.71 -16.03,-76.27 51.18,-61.41 90.17,-13.47 64.3,45.02 -2.25,82.54 z m 6.93,9.64 52.22,-56.57 c 0.33,-0.36 1.53,-3.31 1.54,-3.79 l 2.41,-87.85 c 0.03,-1.05 -1.62,-4.32 -2.48,-4.92 l -68.77,-48.16 c -0.45,-0.31 -3.65,-1.07 -4.2,-0.98 l -94.65,14.14 c -0.49,0.08 -3.29,1.65 -3.61,2.03 l -54.4,65.28 c -0.54,0.65 -1.4,4.09 -1.22,4.92 l 17.22,81.93 c 0.2,0.93 2.47,3.74 3.33,4.12 l 77.43,34.48 2.64,0.5 68.55,-3.27 c 0.58,-0.02 3.59,-1.43 3.99,-1.86 z m 170.65,-1001.53 46.18,-12.73 38.73,25.83 4.86,42.14 -18.68,30.32 -58.02,0.87 -30.13,-35.75 -1.24,-25.21 z m -8.25,-8.46 -20.69,28.79 c -0.24,0.34 -1.11,3.28 -1.09,3.68 l 1.45,29.21 c 0.01,0.38 1.12,3.17 1.36,3.46 l 33.18,39.35 c 0.51,0.62 3.72,2.09 4.53,2.07 l 63.96,-0.95 c 1.09,-0.02 4.29,-1.84 4.87,-2.76 l 21.41,-34.76 c 0.22,-0.34 0.88,-3.32 0.83,-3.72 l -5.4,-46.82 c -0.08,-0.76 -1.91,-3.75 -2.55,-4.18 l -43.19,-28.79 c -0.62,-0.41 -4.06,-0.97 -4.78,-0.77 l -50.71,13.98 c -0.41,0.11 -2.94,1.88 -3.18,2.21 z m -289.13,260.33 -4.01,-58.03 34.7,-67.14 83.99,-16.17 67.75,45.62 15.48,80.83 -48.26,59.2 -91.09,-0.56 z m -9.1,7.72 62.23,46.49 c 0.29,0.22 3.1,1.16 3.45,1.16 l 95.78,0.59 c 0.82,0 4.02,-1.5 4.54,-2.14 l 51.74,-63.46 c 0.49,-0.61 1.35,-4.01 1.2,-4.77 l -16.44,-85.88 c -0.12,-0.59 -1.97,-3.39 -2.47,-3.73 l -71.75,-48.32 c -0.49,-0.33 -3.76,-1 -4.35,-0.88 l -89.11,17.16 c -0.84,0.16 -3.68,2.29 -4.07,3.04 l -36.74,71.09 c -0.11,0.22 -0.65,2.83 -0.64,3.07 l 4.31,62.32 c 0.05,0.75 1.72,3.81 2.32,4.26 z m -134.418,216.57 c 0.363,1.05 3.093,3.51 4.171,3.77 l 48.087,11.28 c 0.65,0.16 4.01,-0.45 4.57,-0.82 l 47.16,-31.59 c 1.23,-0.82 2.74,-4.28 2.51,-5.74 l -8.18,-51.98 c -0.09,-0.6 -1.85,-3.45 -2.34,-3.81 l -40.92,-29.5 c -1.09,-0.79 -4.83,-1.08 -6.03,-0.48 l -42.325,21.39 c -0.606,0.3 -2.789,2.94 -2.973,3.6 l -14.285,50.09 c -0.09,0.31 -0.012,3.19 0.094,3.5 z m 9.949,-6.83 -8.813,-25.53 13.082,-45.88 36.9,-18.65 36.08,26.02 7.22,45.91 -41.97,28.11 z m -504.824,467.65 69.5,33.77 -5.45,66.5 h 11.676 l 5.695,-69.52 c 0.137,-1.68 -1.742,-4.97 -3.257,-5.71 l -72.332,-35.14 z m 124.586,-21.6 c -0.313,0.87 0.148,4.45 0.671,5.22 l 28.52,41.89 c 0.492,0.72 3.605,2.48 4.48,2.53 l 55.891,3.16 c 1.461,0.08 4.754,-1.75 5.449,-3.04 l 27.922,-51.63 c 0.219,-0.39 0.668,-3.52 0.574,-3.96 l -11.238,-53.34 c -0.328,-1.54 -3.019,-4.2 -4.566,-4.5 l -45.606,-9.03 c -0.765,-0.15 -4.176,0.69 -4.785,1.18 l -43.461,35.08 c -0.195,0.15 -1.746,2.34 -1.828,2.57 z m 11.953,1.11 10.48,-29.53 40.07,-32.34 39.172,7.75 10.008,47.49 -25.152,46.5 -49.34,-2.8 z m 1148.904,-529.94 108.33,2.35 29.13,46.6 9.65,-6.51 -30.58,-48.92 c -0.56,-0.9 -3.75,-2.71 -4.81,-2.73 l -115,-2.5 c -1.34,-0.03 -4.58,1.84 -5.23,3.01 l -42.5,77.5 c -0.32,0.59 -0.62,4 -0.41,4.64 l 27.98,83.94 10.01,-6.75 -26.15,-78.46 z m -217.91,-169.29 38.46,28.55 3.5,46.43 -30.22,29.77 -35.4,3.94 -36.39,-45.18 9.61,-45.75 19.1,-16.5 z m 1.58,-11.71 -35.42,1.43 c -0.41,0.01 -3.26,1.14 -3.57,1.41 l -22.12,19.11 c -0.29,0.25 -1.82,2.84 -1.89,3.21 l -10.59,50.37 c -0.16,0.79 0.66,4.22 1.16,4.84 l 40.13,49.82 c 0.69,0.85 4.09,2.25 5.18,2.13 l 40.57,-4.52 c 0.4,-0.04 3.16,-1.35 3.44,-1.63 l 33.57,-33.09 c 0.55,-0.53 1.78,-3.81 1.72,-4.58 l -3.89,-51.76 c -0.06,-0.74 -1.74,-3.8 -2.34,-4.24 l -42.24,-31.36 c -0.34,-0.25 -3.29,-1.16 -3.71,-1.14 z m 547.77,-295.1 62.23,-44.71 h -19.93 l -51.46,36.96 c -0.74,0.53 -2.41,3.71 -2.42,4.61 l -2.26,119.71 c -0.04,2.01 2.2,5.09 4.12,5.67 l 92.54,28.07 c 0.76,0.23 4.24,-0.28 4.89,-0.71 l 78.06,-51.42 c 0.71,-0.47 2.52,-3.53 2.59,-4.39 l 7.66,-93.37 c 0.13,-1.68 -1.75,-4.98 -3.26,-5.71 l -81.15,-39.42 h -26.63 l 99.11,48.15 -7.09,86.58 -73.41,48.36 -85.72,-25.99 z m -1287.044,455.24 22.164,13.4 c 0.52,0.31 3.836,0.81 4.422,0.67 l 83.914,-21 c 0.579,-0.14 3.262,-2.12 3.567,-2.63 l 46.879,-77.72 c 0.437,-0.72 0.761,-4.27 0.461,-5.06 l -28.246,-74.87 c -0.086,-0.22 -1.664,-2.38 -1.86,-2.52 l -22.937,-17.96 -5.875,10.18 20.363,15.93 26.676,70.71 -44.184,73.24 -79.23,19.82 -20.293,-12.27 z m 2334.094,536.78 c 0.95,-0.01 4.15,-1.69 4.69,-2.47 l 71.81,-102.27 c 0.29,-0.41 1.07,-3.53 1.01,-4.02 l -13.6,-116.17 c -0.03,-0.3 -1.18,-2.91 -1.38,-3.14 l -84.32,-97.07 c -0.69,-0.79 -4.11,-2.09 -5.14,-1.96 l -150.15,19.59 c -0.87,0.11 -3.85,2.1 -4.29,2.87 l -76.16,132.73 c -0.49,0.86 -0.63,4.49 -0.21,5.39 l 78.33,165.37 c 0.64,1.35 3.84,3.35 5.34,3.33 z m -3.12,-11.6 -167.37,2.1 -75.44,-159.25 73.22,-127.6 144.18,-18.81 81.1,93.37 13.13,112.18 z m 320.62,-107.99 c 0.55,0.46 3.89,1.39 4.59,1.28 l 130.56,-19.58 c 1.31,-0.19 4.19,-2.59 4.63,-3.84 l 32.64,-93.56 c 0.38,-1.1 -0.28,-4.75 -1.02,-5.64 l -54.4,-65.28 c -0.36,-0.43 -3.27,-2 -3.83,-2.06 l -117.5,-13.05 c -1.24,-0.14 -4.64,1.37 -5.37,2.38 l -82.75,115.19 c -1.64,2.27 -1.15,6.07 0.99,7.86 z m 5.45,-10.61 -85.3,-71.16 77.62,-108.03 111.79,12.43 50.79,60.95 -30.4,87.14 z m 324.48,18.2 -29.17,11.46 -50.69,-9.03 -19.85,-34.65 29.27,-38.7 51.6,-11.53 5.27,6.81 -10.18,-17.63 -51.31,11.46 c -0.44,0.1 -3.1,1.8 -3.37,2.17 l -32.88,43.47 c -0.95,1.26 -1.19,5.03 -0.41,6.4 l 23.11,40.35 c 0.39,0.67 3.26,2.69 4.03,2.83 l 54.99,9.79 c 0.24,0.04 2.91,-0.22 3.14,-0.31 l 33.45,-13.15 c 0.86,-0.34 3.26,-3.03 3.5,-3.93 l 7.19,-27.3 -8.26,-14.32 z m -26.13,261.22 15.71,-35.49 c 0.54,-1.22 0.06,-4.94 -0.77,-5.98 l -110.97,-139.26 c -0.38,-0.47 -3.3,-2.09 -3.9,-2.16 l -115.32,-13.05 c -1.19,-0.13 -4.59,1.33 -5.31,2.28 l -99.01,131.65 c -0.23,0.31 -1.17,3.19 -1.16,3.57 l 0.78,58.38 11.63,0.01 -0.75,-56.56 95.81,-127.4 109.63,12.41 107.28,134.62 -16.37,36.98 z m -1216.8,-886.81 -64.78,3.08 -73.45,-32.7 -16.04,-76.28 51.18,-61.41 90.17,-13.47 64.31,45.02 -2.26,82.54 z m 6.93,9.64 52.23,-56.57 c 0.32,-0.36 1.52,-3.31 1.54,-3.79 l 2.41,-87.85 c 0.02,-1.05 -1.62,-4.32 -2.48,-4.92 l -68.78,-48.15 c -0.45,-0.32 -3.65,-1.07 -4.19,-0.99 l -94.66,14.14 c -0.49,0.08 -3.29,1.65 -3.61,2.03 l -54.4,65.28 c -0.54,0.65 -1.39,4.1 -1.22,4.92 l 17.22,81.94 c 0.2,0.92 2.47,3.73 3.33,4.11 l 77.43,34.48 2.64,0.5 68.54,-3.26 c 0.59,-0.03 3.61,-1.44 4,-1.87 z m 720.06,315.98 46.18,-12.72 38.74,25.82 4.86,42.15 -18.69,30.32 -58.01,0.86 -30.14,-35.74 -1.24,-25.21 z m -8.25,-8.45 -20.69,28.79 c -0.23,0.33 -1.1,3.27 -1.08,3.68 l 1.44,29.21 c 0.02,0.37 1.12,3.17 1.36,3.46 l 33.18,39.35 c 0.52,0.61 3.73,2.08 4.53,2.07 l 63.97,-0.96 c 1.09,-0.01 4.28,-1.83 4.86,-2.76 l 21.42,-34.75 c 0.21,-0.34 0.87,-3.33 0.82,-3.72 l -5.39,-46.83 c -0.09,-0.76 -1.92,-3.75 -2.55,-4.17 l -43.2,-28.8 c -0.62,-0.41 -4.05,-0.97 -4.77,-0.77 l -50.72,13.98 c -0.4,0.11 -2.94,1.88 -3.18,2.22 z m -110.85,-140.59 -4.03,-58.33 34.7,-67.14 83.99,-16.17 68.12,45.87 19.1,56.85 -40.02,70.62 -97.12,26.06 z m -9.51,7.1 68.85,61.43 c 0.8,0.71 4.36,1.56 5.38,1.28 l 102.5,-27.5 c 0.6,-0.16 3.25,-2.22 3.56,-2.75 l 42.5,-75 c 0.35,-0.62 0.68,-4.05 0.45,-4.72 l -20.55,-61.19 c -0.12,-0.36 -1.95,-2.76 -2.27,-2.97 l -71.75,-48.31 c -0.49,-0.34 -3.76,-1 -4.34,-0.89 l -89.12,17.16 c -0.84,0.16 -3.68,2.29 -4.07,3.04 l -36.74,71.09 c -0.11,0.22 -0.65,2.83 -0.64,3.08 l 4.31,62.31 c 0.04,0.58 1.5,3.56 1.93,3.94 z m -153.38,131.88 c 0.36,1.05 3.1,3.52 4.17,3.77 l 48.09,11.29 c 0.65,0.15 4.01,-0.46 4.56,-0.83 l 47.17,-31.59 c 1.23,-0.82 2.73,-4.27 2.51,-5.73 l -8.18,-51.98 c -0.09,-0.6 -1.85,-3.46 -2.34,-3.82 l -40.93,-29.5 c -1.08,-0.79 -4.82,-1.08 -6.02,-0.47 l -42.33,21.38 c -0.6,0.31 -2.78,2.95 -2.97,3.6 l -14.28,50.09 c -0.09,0.32 -0.01,3.2 0.09,3.5 z m 9.95,-6.82 -8.81,-25.54 13.08,-45.88 36.9,-18.64 36.09,26.01 7.22,45.91 -41.98,28.11 z m -377.2,85.9 c -0.59,0.42 -2.32,3.44 -2.39,4.16 l -10.04,103.91 c -0.13,1.28 1.46,4.66 2.53,5.38 l 85,57.5 c 0.73,0.5 4.28,0.98 5.12,0.69 l 100.83,-34.02 c 2.02,-0.69 4.12,-3.88 3.94,-6.01 l -10.84,-128.47 c -0.09,-1.14 -2.17,-4.2 -3.2,-4.71 l -96.42,-48.15 c -1.19,-0.59 -4.92,-0.29 -6,0.48 z m 8.93,7.91 63.54,-45.65 90.37,45.12 10.17,120.67 -93.78,31.65 -79.75,-53.95 z m 640.9,307.22 c -0.31,0.88 0.15,4.46 0.67,5.23 l 28.52,41.88 c 0.49,0.73 3.6,2.49 4.48,2.54 l 55.89,3.16 c 1.46,0.08 4.75,-1.75 5.45,-3.04 l 27.92,-51.62 c 0.22,-0.41 0.67,-3.53 0.58,-3.97 l -11.25,-53.34 c -0.32,-1.54 -3.02,-4.2 -4.56,-4.51 l -45.61,-9.02 c -0.76,-0.15 -4.17,0.69 -4.78,1.18 l -43.46,35.07 c -0.2,0.16 -1.75,2.35 -1.83,2.58 z m 11.95,1.12 10.48,-29.54 40.07,-32.33 39.17,7.75 10.01,47.49 -25.15,46.5 -49.34,-2.8 z m -481.05,79.14 16.75,-15.29 c 0.22,-0.19 1.66,-2.62 1.73,-2.91 l 11.81,-48.11 c 0.27,-1.09 -0.7,-4.65 -1.48,-5.46 l -39.52,-40.47 c -0.82,-0.84 -4.39,-1.87 -5.52,-1.6 l -41.16,9.89 c -0.25,0.06 -2.61,1.39 -2.79,1.58 l -34.71,35.35 c -0.48,0.49 -1.69,3.72 -1.65,4.41 l 0.45,7.62 12.12,7.79 -0.8,-13.52 31.72,-32.31 36.32,-8.72 34.95,35.8 -10.62,43.26 -18.72,17.09 z m -136.04,-668.92 38.46,28.56 3.49,46.42 -30.21,29.78 -35.4,3.94 -36.4,-45.18 9.62,-45.75 19.1,-16.51 z m 1.58,-11.71 -35.42,1.43 c -0.41,0.02 -3.26,1.14 -3.57,1.41 l -22.12,19.12 c -0.29,0.24 -1.82,2.83 -1.89,3.2 l -10.59,50.37 c -0.17,0.79 0.66,4.22 1.16,4.85 l 40.13,49.81 c 0.69,0.85 4.09,2.26 5.17,2.13 l 40.58,-4.51 c 0.4,-0.04 3.15,-1.36 3.44,-1.64 l 33.57,-33.08 c 0.55,-0.54 1.78,-3.82 1.72,-4.58 l -3.9,-51.77 c -0.05,-0.74 -1.73,-3.79 -2.33,-4.23 l -42.25,-31.37 c -0.33,-0.25 -3.28,-1.15 -3.7,-1.14 z m -172.05,227.34 -33.33,-199.29 c -0.15,-0.96 -2.32,-3.85 -3.19,-4.28 l -120.97,-58.65 c -1.2,-0.59 -4.93,-0.24 -6,0.56 l -143.05,106.04 c -0.48,0.36 -2.2,3.23 -2.29,3.82 l -17.07,114.8 c -0.18,1.18 1.17,4.63 2.09,5.38 l 24.56,19.85 9.95,-6.92 -24.61,-19.89 16.23,-109.12 138.28,-102.52 115.09,55.81 32.2,192.58 -90.36,58.84 5.59,10.25 94.31,-61.42 c 1.3,-0.85 2.82,-4.31 2.57,-5.84 z m 356.83,-357.18 c -1.01,0.08 -4.09,2.04 -4.59,2.93 l -64.95,114.94 c -0.65,1.15 -0.54,4.9 0.18,6.01 l 53.63,83.32 c 0.63,0.98 3.91,2.71 5.08,2.67 l 84.93,-2.67 c 0.56,-0.02 3.58,-1.35 3.97,-1.75 l 82.64,-84.56 c 1.59,-1.63 1.93,-5.44 0.65,-7.33 l -79.52,-117.35 c -0.69,-1.03 -4.05,-2.64 -5.29,-2.54 z m 4.02,11.34 70.28,-5.79 74.95,110.6 -77.68,79.49 -79.3,2.5 -49.95,-77.6 z m -96.1,-110.97 -18.21,-38.65 22.44,-35.1 44.66,-7.5 34.51,14.3 7.24,49.51 -34.03,28.76 -27.24,3.04 z m -6.94,9.56 32.72,16 c 0.24,0.11 2.94,0.58 3.2,0.55 l 30.69,-3.43 c 0.29,-0.03 2.88,-1.14 3.11,-1.34 l 37.84,-31.98 c 0.85,-0.73 2.16,-4.18 2,-5.28 l -8.19,-55.99 c -0.17,-1.16 -2.44,-4.08 -3.53,-4.53 l -39.1,-16.19 c -0.24,-0.1 -2.93,-0.41 -3.19,-0.37 l -48.85,8.2 c -0.69,0.12 -3.56,2.02 -3.94,2.61 l -25.56,39.98 c -0.6,0.93 -0.84,4.61 -0.37,5.62 l 20.46,43.4 c 0.18,0.38 2.34,2.57 2.71,2.75 z m 400.74,948.85 63.35,-45.51 100.75,48.94 -3.68,44.95 11.67,0.01 3.93,-47.97 c 0.14,-1.68 -1.74,-4.98 -3.25,-5.71 l -107.45,-52.2 c -1.17,-0.57 -4.89,-0.25 -5.94,0.51 l -68.53,49.23 c -0.74,0.53 -2.41,3.71 -2.42,4.61 l -0.92,48.57 11.62,0.85 z M 1960.09,1513.42 c 0.36,-0.88 0.05,-4.48 -0.45,-5.29 l -66.08,-106.06 c -0.27,-0.42 -2.83,-2.36 -3.31,-2.5 l -112.24,-32.87 c -0.3,-0.09 -3.14,-0.05 -3.44,0.05 l -122.3,39.68 c -0.99,0.32 -3.52,2.96 -3.81,3.97 l -40.64,145.86 c -0.23,0.85 0.44,4.37 0.97,5.07 l 92.42,121.97 c 0.61,0.79 3.89,2.34 4.88,2.3 l 182.84,-7.49 c 1.48,-0.06 4.57,-2.23 5.14,-3.61 z m -11.9,-1.66 -63.47,154.88 -176.07,7.21 -88.84,-117.25 39.03,-140.07 117.62,-38.16 108.4,31.74 z m 61.4,201.82 c -0.32,0.87 0.14,4.45 0.67,5.22 l 28.52,41.88 c 0.49,0.73 3.6,2.49 4.48,2.54 l 55.89,3.16 c 1.46,0.08 4.75,-1.75 5.45,-3.04 l 27.92,-51.63 c 0.22,-0.4 0.67,-3.51 0.57,-3.96 l -11.23,-53.34 c -0.33,-1.54 -3.02,-4.2 -4.57,-4.5 l -45.61,-9.03 c -0.76,-0.15 -4.17,0.69 -4.78,1.18 l -43.46,35.07 c -0.2,0.16 -1.75,2.35 -1.83,2.58 z m 11.95,1.11 10.48,-29.53 40.07,-32.34 39.17,7.75 10.01,47.49 -25.15,46.49 -49.34,-2.79 z m 723.5,-374.8 -23.13,42.27 -86.73,14.32 -65.4,-56.59 h -15.01 c 0.21,1.55 0.85,3.13 1.73,3.9 l 73.13,63.27 c 0.59,0.52 3.98,1.47 4.75,1.34 l 92.22,-15.22 c 0.84,-0.14 3.75,-2.2 4.16,-2.95 l 27.54,-50.34 z m 460.95,0 26.44,40.18 -54.73,136.54 -140.17,38.69 -93.3,-81.17 -28.62,-109.26 12.77,-24.98 h -13.06 l -11.08,21.66 c -0.22,0.45 -0.57,3.64 -0.45,4.12 l 29.64,113.15 c 0.08,0.3 1.58,2.71 1.81,2.91 l 97.01,84.4 c 0.79,0.69 4.36,1.5 5.36,1.22 l 145.96,-40.29 c 0.85,-0.24 3.52,-2.62 3.85,-3.44 l 56.94,-142.05 c 0.37,-0.91 0.01,-4.53 -0.54,-5.36 l -23.9,-36.32 z m 306.3,470.43 31,-22.27 -5.84,-10.12 -34.31,24.65 c -0.74,0.53 -2.41,3.71 -2.43,4.61 l -2.25,119.7 c -0.04,2.01 2.2,5.1 4.12,5.68 l 92.54,28.06 c 0.76,0.23 4.24,-0.27 4.89,-0.7 l 30.8,-20.29 -5.83,-10.1 -29.09,19.17 -85.72,-26 z m -170.5,-371.29 -19.64,16.97 c -0.29,0.24 -1.81,2.83 -1.89,3.2 l -10.59,50.37 c -0.16,0.79 0.66,4.22 1.17,4.85 l 40.12,49.81 c 0.69,0.86 4.09,2.26 5.18,2.13 l 40.57,-4.51 c 0.4,-0.05 3.16,-1.36 3.44,-1.64 l 7.39,-7.28 -6.01,-10.41 -8.11,7.99 -35.4,3.94 -36.39,-45.18 9.61,-45.75 16.47,-14.23 z m -999.65,-46.59 32.73,15.99 c 0.24,0.12 2.93,0.59 3.2,0.56 l 30.68,-3.43 c 0.29,-0.03 2.88,-1.15 3.11,-1.34 l 37.84,-31.99 c 0.85,-0.72 2.16,-4.17 2,-5.28 l -3.96,-27.06 h -11.76 l 3.73,25.54 -34.01,28.77 -27.25,3.04 -29.36,-14.35 -18.22,-38.66 2.78,-4.34 h -13.81 c -1.1,1.72 -1.34,5.39 -0.86,6.39 l 20.45,43.41 c 0.18,0.38 2.34,2.57 2.71,2.75 z m -1187.91,-52.55 -12.55,13.76 c -0.55,0.61 -1.57,4 -1.45,4.81 l 12.54,80.91 c 0.12,0.77 2.08,3.68 2.74,4.09 l 74.83,45.24 c 0.52,0.31 3.84,0.81 4.42,0.66 l 83.92,-20.98 c 0.57,-0.15 3.26,-2.13 3.56,-2.65 l 46.88,-77.71 c 0.44,-0.72 0.76,-4.27 0.46,-5.06 l -16.25,-43.07 h -12.44 l 16.81,44.54 -44.18,73.24 -79.23,19.82 -70.43,-42.58 -11.7,-75.48 17.82,-19.54 z m -189.132,225.81 17.785,22.07 c 0.683,0.86 4.086,2.26 5.172,2.14 l 40.575,-4.52 c 0.4,-0.04 3.15,-1.36 3.44,-1.64 l 33.57,-33.08 c 0.55,-0.54 1.78,-3.82 1.72,-4.58 l -3.9,-51.77 c -0.05,-0.74 -1.74,-3.79 -2.33,-4.23 l -36.67,-27.22 -5.85,10.14 33.45,24.83 3.49,46.43 -30.21,29.78 -35.399,3.94 -18.609,-23.1 -6.234,10.81" /></g></g></svg>