<svg width="23" height="32" viewBox="0 0 23 32" xmlns="http://www.w3.org/2000/svg">
    <g fill="none" fill-rule="evenodd">
        <path d="M0 0h23v32H0z"/>
        <path d="M9.857 0a7.572 7.572 0 0 1 5.884 2.803h2.449a4.625 4.625 0 0 1 3.954 7.026c.426.699.671 1.52.671 2.4 0 .875-.244 1.698-.671 2.4a4.626 4.626 0 0 1-2.645 6.836l.02.386.004.32c0 5.404-4.302 9.829-9.666 9.829C4.492 32 .19 27.575.19 22.171c0-2.018.605-3.944 1.69-5.554l.21-.298.1-.133V7.771C2.19 3.67 5.337.273 9.364.016l.248-.012L9.857 0z" fill="#FFF"/>
        <g fill-rule="nonzero">
            <path d="M9.857 4c1.975 0 3.586 1.607 3.663 3.62l.003.151.001 9.957a5.885 5.885 0 0 1 2 4.443c0 3.22-2.538 5.829-5.667 5.829-3.13 0-5.667-2.61-5.667-5.829 0-1.78.776-3.375 2-4.444V7.771C6.19 5.69 7.832 4 9.857 4z" fill="#797979"/>
            <path d="M9.857 5.25c-1.274 0-2.33 1.033-2.412 2.355l-.005.166v10.524l-.428.374A4.634 4.634 0 0 0 5.44 22.17c0 2.537 1.985 4.579 4.417 4.579 2.43 0 4.416-2.042 4.416-4.579a4.642 4.642 0 0 0-1.39-3.335l-.182-.167-.427-.373v-10.5l-.003-.128C12.22 6.313 11.147 5.25 9.857 5.25z" fill="#FFF"/>
            <path d="M10.857 12.229v7.033c1.165.423 2 1.566 2 2.91 0 1.704-1.343 3.085-3 3.085s-3-1.381-3-3.086c0-1.343.835-2.486 2-2.91V12.23h2zM18.19 16.404a.625.625 0 0 1 .092 1.243l-.092.007h-2.667a.625.625 0 0 1-.092-1.244l.092-.006h2.667zM18.19 11.604a.625.625 0 0 1 .092 1.243l-.092.007h-2.667a.625.625 0 0 1-.092-1.244l.092-.006h2.667zM18.19 6.804a.625.625 0 0 1 .092 1.243l-.092.007h-2.667a.625.625 0 0 1-.092-1.244l.092-.006h2.667z" fill="#797979"/>
        </g>
    </g>
</svg>
